<?xml version="1.0" encoding="utf-8"?><!DOCTYPE svg PUBLIC "-//W3C//DTD SVG 1.1//EN" "http://www.w3.org/Graphics/SVG/1.1/DTD/svg11.dtd"><svg version="1.1" id="Contours" xmlns="http://www.w3.org/2000/svg" xmlns:xlink="http://www.w3.org/1999/xlink" x="0px" y="0px" width="1333.796753px" height="1333.796753px" viewBox="0.000000 0.000000 1333.796753 3387.342773" enable-background="new 0 0 1333.796753 1333.796753" xml:space="preserve" stroke="black" fill="none" stroke-linecap='round' stroke-linejoin='round'><path class="selected"  fill="#000000" opacity="1.000000" stroke="none" 
 	d="
M841.680593 1527.842651 C844.249563 1528.078369 846.818533 1528.313964 849.387503 1528.549560 C847.502127 1529.963745 845.782339 1531.714721 843.704092 1532.736694 C831.116018 1538.926635 824.801077 1550.372924 818.437857 1561.959350 C815.129019 1567.984253 810.967214 1573.539672 807.220205 1579.326172 C806.806021 1579.965820 806.586172 1580.731201 806.276296 1581.438354 C807.220449 1581.573120 808.391531 1582.136352 809.073049 1581.775390 C814.824331 1578.728393 820.592947 1575.687500 826.144644 1572.298095 C831.501516 1569.027343 836.594595 1565.325927 841.826589 1561.848266 C846.525869 1558.724487 851.657766 1556.112793 855.892935 1552.457275 C865.982168 1543.748779 877.353262 1537.261718 889.146170 1531.261596 C897.161245 1527.183715 904.479055 1521.620117 912.693045 1518.074585 C926.539358 1512.098022 940.765249 1506.958740 954.989675 1501.913086 C967.799978 1497.369018 980.325796 1492.464233 992.598867 1486.415893 C1007.733755 1478.957153 1024.035452 1473.848388 1039.885671 1467.863891 C1056.030203 1461.768188 1072.283010 1455.958252 1088.405935 1449.806884 C1101.929129 1444.647339 1114.928396 1436.942138 1128.893240 1434.409790 C1146.230886 1431.265625 1162.532522 1424.862060 1179.720754 1421.366699 C1192.243460 1418.819946 1204.502737 1416.049438 1217.326956 1415.703857 C1222.331961 1415.569214 1226.419729 1417.223510 1227.440725 1421.478759 C1229.146902 1428.589721 1236.204885 1434.702392 1231.848684 1443.192749 C1231.287527 1444.286621 1233.666311 1446.594848 1233.562063 1448.270507 C1233.204153 1454.013427 1232.927908 1459.866455 1231.574880 1465.422973 C1226.963552 1484.359863 1224.903982 1503.469604 1225.546072 1522.965576 C1225.744680 1528.994018 1224.642263 1535.127441 1223.579885 1541.114135 C1222.833425 1545.320678 1225.410574 1549.072631 1223.946707 1553.561401 C1222.669363 1557.478027 1223.508474 1562.149170 1223.713430 1566.472534 C1224.285452 1578.533813 1224.281423 1590.685791 1225.882620 1602.617187 C1227.551443 1615.052978 1228.607473 1627.518310 1230.021170 1639.947143 C1231.244802 1650.703979 1232.577200 1661.660156 1236.575735 1672.119629 C1238.462698 1677.055786 1237.497854 1683.115600 1237.651174 1688.671020 C1237.774832 1693.153930 1238.409719 1697.264892 1240.109426 1701.656005 C1242.898245 1708.861694 1243.695974 1716.812500 1245.736257 1724.339843 C1248.284841 1733.743042 1246.576956 1744.016967 1251.680593 1752.868408 C1250.466360 1767.493042 1260.359304 1780.432983 1257.919241 1795.420288 C1257.202566 1799.822143 1258.351736 1805.198120 1260.406423 1809.230346 C1263.842092 1815.972412 1263.415823 1822.863525 1263.764089 1829.890503 C1263.982595 1834.303100 1265.668020 1838.695312 1265.534231 1843.061157 C1265.308645 1850.429321 1264.171682 1857.770385 1263.389456 1865.119751 C1263.291799 1866.036865 1263.021780 1866.935424 1262.831594 1867.842651 C1271.240530 1869.202880 1270.763357 1877.290893 1271.232107 1882.136718 C1272.458547 1894.815673 1272.510794 1907.640503 1265.917410 1919.735717 C1262.188162 1926.577026 1256.598440 1931.266967 1251.717825 1936.827636 C1242.908621 1946.864624 1231.654714 1952.988647 1219.477590 1957.990844 C1214.637625 1959.978881 1209.918142 1963.036255 1206.135061 1966.645874 C1199.805471 1972.685669 1191.931082 1975.779663 1184.539236 1979.857299 C1169.610769 1988.092407 1154.845388 1996.630737 1139.794485 2004.633422 C1125.071585 2012.462036 1110.661550 2021.446655 1095.060110 2026.917602 C1073.491629 2034.480835 1053.146047 2044.906860 1031.445242 2052.095337 C1021.882131 2055.263305 1013.333486 2061.395874 1004.137747 2065.792114 C989.680166 2072.703979 974.593923 2078.444702 960.652883 2086.250854 C947.531118 2093.598510 935.567495 2103.007934 923.047781 2111.440796 C919.687490 2113.704223 916.110891 2115.646118 912.746633 2117.904174 C912.116140 2118.327270 911.644216 2119.628540 911.800100 2120.378784 C911.925161 2120.981323 913.153128 2121.830200 913.820791 2121.770874 C920.857107 2121.145630 928.125967 2121.268676 934.856680 2119.440307 C952.125784 2114.749389 969.001516 2108.815307 985.325552 2101.316284 C996.510855 2096.178100 1007.786917 2090.981323 1019.485647 2087.271850 C1041.582693 2080.265014 1062.685842 2070.844604 1084.233938 2062.497192 C1106.653494 2053.812133 1129.316336 2045.613159 1152.275076 2038.500366 C1176.782522 2030.907837 1200.550588 2021.504760 1224.404104 2012.219116 C1231.016043 2009.645141 1237.939382 2006.353881 1244.770681 2006.231567 C1254.015798 2006.066040 1264.405325 2004.787719 1271.734548 2013.038452 C1273.527883 2015.057006 1275.151907 2017.790161 1275.535574 2020.389526 C1276.617605 2027.718383 1276.037649 2035.406860 1277.908254 2042.478393 C1280.752127 2053.230102 1280.138601 2064.308715 1282.927664 2075.244018 C1285.754568 2086.327514 1286.985525 2098.180786 1289.672903 2109.567016 C1290.391531 2112.611938 1290.043753 2116.565063 1291.869314 2118.564087 C1296.628836 2123.776489 1295.827566 2130.485229 1297.331350 2136.339965 C1299.394338 2144.371460 1297.781668 2153.368286 1299.965261 2161.343139 C1303.362478 2173.748901 1301.392752 2186.355102 1303.073660 2198.844360 C1304.951956 2212.800415 1308.659353 2226.682983 1308.027517 2241.119262 C1307.804251 2246.217407 1311.557180 2251.497192 1313.531546 2256.680053 C1314.188894 2258.405639 1315.816336 2260.242553 1315.540823 2261.764038 C1313.850393 2271.096801 1318.893118 2279.264526 1319.736624 2288.126098 C1319.877493 2289.607299 1320.685598 2291.050659 1321.310720 2292.455444 C1326.280691 2303.626587 1327.520315 2314.945678 1323.911795 2326.888061 C1323.121267 2329.504028 1325.275686 2332.902954 1325.636404 2335.992309 C1327.207083 2349.445190 1328.148855 2362.974975 1327.566458 2376.495483 C1327.060354 2388.244506 1330.790701 2399.343139 1331.680593 2410.842163 C1336.818167 2414.622924 1330.939749 2418.221313 1331.297903 2422.218872 C1332.364553 2434.122924 1331.813162 2446.186157 1331.589163 2458.181518 C1331.531912 2461.250122 1330.267752 2464.282837 1329.696585 2467.357544 C1328.314504 2474.795776 1326.924734 2482.234741 1325.704153 2489.700561 C1324.271170 2498.464965 1322.480764 2507.221557 1321.877493 2516.052124 C1321.506277 2521.484985 1318.273367 2525.296753 1316.643728 2529.948364 C1315.414846 2533.455932 1314.691213 2537.137573 1313.665335 2540.719604 C1313.070608 2542.795776 1312.713308 2545.080688 1311.576834 2546.836792 C1306.137991 2555.239624 1300.573904 2563.763794 1299.864553 2573.936401 C1299.263845 2582.554321 1293.452810 2588.115600 1289.506033 2594.666870 C1286.770925 2599.206909 1282.908010 2602.786499 1281.355276 2608.375610 C1280.433401 2611.693969 1276.146170 2613.998413 1273.609304 2616.962036 C1266.504568 2625.262085 1259.893728 2634.019897 1252.382254 2641.926147 C1245.639578 2649.022827 1238.201834 2655.524047 1230.623831 2661.743042 C1223.531301 2667.564087 1216.115530 2673.084839 1208.374685 2678.002075 C1193.855276 2687.224731 1181.234060 2699.401245 1164.952932 2705.903930 C1162.670462 2706.815307 1160.504812 2708.312866 1158.652151 2709.953491 C1152.203665 2715.663696 1144.902151 2719.389526 1136.669851 2722.157104 C1128.548879 2724.887085 1121.193167 2729.816040 1113.220388 2733.096801 C1109.267874 2734.723266 1104.876272 2736.215454 1100.944265 2737.032592 C1093.452810 2738.588745 1087.447805 2743.269165 1080.021536 2744.813842 C1074.750784 2745.910522 1070.003836 2749.462768 1064.981863 2751.831909 C1056.061087 2756.040405 1047.067800 2760.097046 1038.182546 2764.378540 C1030.117849 2768.265014 1021.970266 2772.037964 1014.193655 2776.449829 C1002.277944 2783.209839 989.020742 2786.551391 976.625601 2791.993042 C966.043447 2796.639038 954.723501 2798.702026 944.061575 2802.724975 C932.557669 2807.065063 921.463980 2812.599243 910.486318 2818.191528 C902.573171 2822.222778 893.976004 2823.457397 885.686636 2825.973510 C876.981619 2828.615356 868.226553 2827.548462 859.475149 2827.798950 C858.268545 2827.833374 857.044973 2827.274780 855.829275 2826.991089 C857.103933 2826.284301 858.311148 2825.385620 859.666860 2824.908569 C862.873342 2823.780395 866.089773 2822.297241 869.408865 2821.935669 C886.716604 2820.048950 902.731680 2814.149047 917.697073 2805.714721 C931.688467 2797.828979 947.151358 2794.659301 962.098501 2789.717651 C974.367056 2785.662231 986.401174 2780.811889 998.302603 2775.756469 C1009.927603 2770.818725 1021.303762 2765.281372 1032.696585 2759.814575 C1044.937918 2753.940551 1056.917898 2747.499145 1069.300711 2741.950073 C1079.406423 2737.421264 1090.070974 2734.152221 1100.252249 2729.776489 C1119.802542 2721.374878 1139.683767 2713.896362 1158.144949 2702.837036 C1174.939504 2692.775756 1190.952566 2681.877563 1206.739553 2670.355835 C1214.992239 2664.333130 1222.937673 2658.025756 1231.032278 2651.837524 C1248.288992 2638.645874 1259.625540 2620.363159 1273.816824 2604.562622 C1276.926077 2601.100708 1279.594168 2597.019653 1281.561087 2592.801880 C1285.465139 2584.431030 1291.681814 2577.222290 1293.172537 2567.569214 C1294.003591 2562.187622 1296.564627 2557.024292 1298.679129 2551.900024 C1303.025320 2541.367553 1307.689993 2530.966430 1312.022390 2520.428589 C1313.544851 2516.724975 1315.434011 2512.798706 1315.512380 2508.940796 C1315.824636 2493.559692 1317.721609 2478.581909 1323.585379 2464.221069 C1324.285208 2462.506714 1323.278616 2460.158813 1323.752737 2458.278198 C1325.473806 2451.451538 1321.691824 2444.962524 1323.350149 2437.840942 C1324.896414 2431.201294 1324.596365 2423.761840 1323.434255 2416.960571 C1322.161184 2409.511352 1323.076589 2401.665649 1319.732717 2394.551880 C1319.347708 2393.732788 1319.713552 2392.575317 1319.675711 2391.576782 C1319.015798 2374.186645 1318.441458 2356.792358 1317.610769 2339.410278 C1317.415823 2335.330688 1315.138113 2331.009887 1316.003469 2327.311401 C1316.965383 2323.200561 1314.935598 2319.758178 1315.532766 2315.870483 C1316.183157 2311.637085 1316.196462 2307.147583 1315.545095 2302.914428 C1314.795584 2298.043823 1312.933279 2293.352661 1311.695608 2288.547241 C1307.815359 2273.482055 1303.762503 2258.454956 1300.274221 2243.298462 C1298.777639 2236.795288 1298.763601 2229.966186 1297.630056 2223.361694 C1294.825003 2207.019897 1293.956228 2190.588501 1293.175466 2174.035766 C1292.735037 2164.696411 1292.441580 2155.214965 1291.540823 2145.854858 C1290.945730 2139.669555 1289.633718 2133.393432 1287.559133 2127.541870 C1282.273001 2112.632690 1277.811087 2097.641235 1277.593069 2081.644165 C1277.564993 2079.578247 1276.321218 2077.536987 1275.684744 2075.470581 C1271.520071 2061.947143 1271.222097 2047.864380 1269.649099 2033.962524 C1269.187307 2029.882202 1268.908010 2025.631958 1267.477590 2021.864868 C1266.568655 2019.470825 1264.034841 2016.891479 1261.636038 2016.008667 C1252.589529 2012.679321 1246.821951 2012.900512 1235.762625 2016.834350 C1219.794973 2022.514038 1204.075613 2028.906616 1188.033987 2034.358764 C1172.243460 2039.725464 1156.853567 2046.339233 1140.456594 2049.907837 C1135.640554 2050.955444 1130.627004 2052.097290 1126.343557 2054.390503 C1116.147268 2059.848999 1105.109060 2062.712768 1094.349050 2066.550171 C1083.958181 2070.255981 1073.514334 2074.006469 1063.382009 2078.694458 C1050.006155 2084.883178 1035.541677 2088.679077 1021.696829 2093.905395 C1008.734976 2098.798462 995.970510 2104.214477 983.120230 2109.402954 C965.547415 2116.497924 948.110769 2123.585327 928.986868 2126.237426 C920.836111 2127.367797 912.835134 2127.437133 904.757620 2127.738403 C903.403555 2127.788940 901.761953 2126.694214 900.753775 2125.646606 C900.431570 2125.311889 901.523733 2123.262329 902.310049 2122.266967 C916.129629 2104.776489 935.485281 2094.430542 953.795950 2082.833618 C979.470205 2066.572876 1008.583975 2057.293579 1035.458181 2043.382202 C1047.704641 2037.042846 1061.224295 2033.208618 1073.972097 2027.781616 C1092.109915 2020.059936 1111.182302 2014.099975 1127.875418 2003.558960 C1138.189749 1997.046020 1149.119192 1991.904907 1159.645559 1985.928100 C1169.851126 1980.133422 1181.062063 1975.942993 1190.744436 1969.431762 C1206.042044 1959.144409 1223.277273 1952.061401 1238.059866 1941.414795 C1249.530447 1933.153564 1261.408377 1923.425781 1264.539236 1907.885498 C1265.428274 1903.473144 1263.930960 1898.045044 1265.990408 1894.522461 C1269.556692 1888.422241 1265.725027 1883.431396 1265.498831 1878.006469 C1265.411428 1875.907959 1263.636892 1873.518310 1261.980276 1871.947754 C1260.298147 1870.352783 1256.206350 1869.861816 1255.977835 1868.437255 C1255.256155 1863.934692 1254.850149 1858.903930 1256.195486 1854.673339 C1257.747122 1849.794677 1257.706838 1845.865234 1256.144216 1840.974487 C1254.328421 1835.291381 1254.074758 1829.017822 1253.752127 1822.968139 C1253.083914 1810.436767 1248.104177 1798.415039 1249.556692 1785.616211 C1249.778616 1783.659912 1248.253591 1781.541137 1247.695730 1779.454956 C1244.032644 1765.753540 1239.515676 1752.286377 1239.470144 1737.775024 C1239.454031 1732.656860 1236.582083 1727.614135 1235.761892 1722.419067 C1233.349905 1707.142456 1227.514578 1692.489868 1227.584524 1676.747192 C1227.596609 1674.026367 1226.069021 1671.334228 1225.729055 1668.570312 C1224.282034 1656.803833 1224.258230 1644.689697 1221.288992 1633.337036 C1218.888113 1624.156738 1221.698782 1614.722168 1217.902151 1605.798339 C1216.660940 1602.880737 1218.647634 1598.751098 1218.068167 1595.362060 C1215.858084 1582.432983 1214.975881 1569.427978 1215.762625 1556.384887 C1216.637136 1541.885009 1216.608450 1527.266357 1218.085501 1512.908569 C1219.729055 1496.932617 1219.902761 1480.799560 1224.826223 1464.892944 C1228.345754 1453.522339 1226.792410 1440.307251 1223.028494 1428.276123 C1221.153982 1422.284423 1217.164114 1420.530029 1210.917898 1421.822143 C1197.703665 1424.556030 1184.402029 1426.899902 1171.258718 1429.934204 C1161.601614 1432.163818 1152.126638 1435.192749 1142.593679 1437.945922 C1133.668997 1440.523315 1124.513113 1442.548339 1115.917898 1445.969604 C1092.726370 1455.200195 1068.648489 1462.041870 1045.889700 1472.457885 C1037.511038 1476.292602 1028.435842 1478.577392 1019.803152 1481.894409 C1011.758047 1484.985717 1003.942373 1488.671753 995.914419 1491.811523 C973.538442 1500.563232 951.209463 1509.452270 928.660696 1517.739502 C910.548269 1524.396118 893.577261 1533.238525 877.313955 1543.402588 C867.409292 1549.592895 858.534109 1557.423950 848.663992 1563.677490 C834.217459 1572.830322 819.358999 1581.343261 804.535025 1589.884155 C799.787100 1592.619629 799.109487 1592.198974 799.836721 1586.955200 C800.376394 1583.064331 801.793691 1579.048339 803.780264 1575.649292 C810.858511 1563.538208 818.191275 1551.567627 825.743460 1539.745605 C829.784475 1533.420044 834.303091 1527.433471 838.244375 1520.999023 C840.990652 1516.515380 847.725820 1514.185791 853.027700 1511.611816 C868.009695 1504.338379 881.531607 1494.832641 895.238577 1485.500366 C906.547659 1477.800659 918.617117 1471.216308 930.365286 1464.163696 C946.112722 1454.710205 961.889761 1445.305786 977.625173 1435.832275 C985.058462 1431.357177 993.798941 1429.951782 1000.871511 1424.106323 C1008.479055 1417.818969 1017.657278 1413.410278 1026.232962 1408.321533 C1036.631399 1402.150756 1046.936819 1395.927978 1059.195974 1393.656494 C1063.906179 1392.783691 1069.127127 1390.777710 1072.538992 1387.597046 C1079.687796 1380.933105 1089.125173 1378.954834 1097.007986 1373.942627 C1100.066702 1371.997680 1103.779104 1370.247436 1107.298635 1370.018066 C1117.539480 1369.350830 1124.552664 1361.799316 1133.621389 1358.546264 C1147.604299 1353.530151 1160.026296 1345.022339 1173.033132 1337.849487 C1180.355154 1333.811767 1187.632742 1329.680786 1195.084158 1325.894653 C1200.846487 1322.966797 1206.628591 1319.124389 1212.791555 1318.147949 C1223.646047 1316.428344 1227.260427 1309.061035 1229.588919 1300.313110 C1232.000784 1291.251587 1233.814871 1282.021850 1235.645559 1272.817016 C1237.794973 1262.008911 1239.851858 1251.176025 1241.615042 1240.299926 C1242.641531 1233.968017 1243.379202 1227.543457 1243.614797 1221.137329 C1244.450125 1198.420654 1245.168386 1175.696899 1245.625296 1152.969848 C1245.919973 1138.309570 1245.919485 1123.634033 1245.625418 1108.973755 C1245.167288 1086.132324 1245.737966 1063.149047 1243.313406 1040.500000 C1240.551687 1014.702514 1243.808401 988.904541 1241.304739 963.328857 C1239.786917 947.825927 1241.912649 931.737671 1235.680593 916.779297 C1237.321829 904.009887 1229.804861 892.942138 1229.174246 880.291381 C1228.598196 868.733825 1223.689016 857.405151 1220.818777 845.943176 C1219.602224 841.084411 1218.360037 836.185791 1217.761770 831.228943 C1216.793753 823.208496 1216.820486 815.049865 1215.556692 807.087768 C1214.087698 797.832275 1211.910940 788.668151 1209.633718 779.566284 C1204.519705 759.126281 1197.555715 739.153137 1192.415090 718.807983 C1189.449758 707.072448 1187.031301 695.028991 1183.542166 683.369751 C1180.812185 674.247009 1177.610891 665.096191 1173.243460 656.670898 C1166.103811 642.897888 1161.170584 628.322448 1155.672048 613.932617 C1154.573049 611.056518 1153.668753 608.048034 1152.151174 605.400512 C1147.063040 596.523620 1143.965628 586.700622 1139.365042 577.720092 C1133.365164 566.007507 1129.739920 553.670349 1125.573049 541.395630 C1124.000540 536.763427 1121.046926 532.618835 1119.001028 528.125427 C1103.523611 494.130554 1086.233572 461.024841 1069.571462 427.614807 C1064.311697 417.068176 1057.024587 407.514892 1051.979055 396.883484 C1044.592092 381.318420 1038.880789 364.959777 1031.538381 349.371154 C1024.579641 334.597259 1016.191946 320.630706 1005.312796 308.148254 C1000.059194 302.120514 996.641165 294.489715 992.416067 287.570099 C990.144644 283.849975 987.982717 280.062011 985.669729 276.368347 C978.042837 264.188690 970.620169 251.871276 962.658865 239.913177 C948.716970 218.972259 935.161367 197.788940 920.449575 177.337310 C902.299246 152.105682 884.249441 126.824615 865.228018 102.231170 C857.532278 92.281097 850.992056 81.446075 843.643057 71.217086 C832.833547 56.171432 821.161306 41.582183 805.664297 31.331482 C796.681143 25.389434 788.412283 18.534088 779.361379 12.834449 C775.057058 10.123855 769.527029 8.333107 764.459036 8.092804 C756.051931 7.694183 747.554495 8.715545 739.123953 9.463195 C733.433523 9.967834 727.756033 11.864532 722.139150 11.619094 C715.931387 11.347839 711.125845 14.097992 706.069876 16.518737 C693.000479 22.776168 679.732107 28.530334 666.403555 34.215301 C656.186148 38.573349 646.762686 45.530502 638.139273 52.715683 C625.150015 63.538543 616.217031 78.146026 605.328726 90.945938 C600.559255 96.552795 594.103445 100.689605 588.828176 105.912857 C584.473684 110.224411 580.377920 114.897583 576.783499 119.857055 C567.156546 133.140136 557.022695 146.167389 548.693472 160.244934 C541.831900 171.842102 536.383474 184.485473 531.882986 197.221466 C524.772329 217.343933 515.028982 236.280334 507.089468 255.957306 C499.013052 275.973571 488.781576 295.073547 481.847463 315.490570 C477.280050 328.938903 472.003652 342.097931 467.314566 355.469238 C463.513143 366.309265 458.527792 376.510406 454.037100 386.985412 C447.491506 402.253753 442.704275 418.371032 438.307546 434.438293 C434.019644 450.107910 431.468313 466.244262 427.578848 482.033935 C424.767263 493.447937 421.081686 504.650512 417.663809 515.910339 C413.174826 530.698730 407.056387 544.952514 403.530813 560.079589 C402.505667 564.478210 399.747854 568.491027 397.669332 572.622924 C387.398031 593.041259 379.805166 614.552734 371.576223 635.815796 C368.691610 643.269531 364.357748 650.149170 361.125387 657.484680 C356.775259 667.356872 352.807363 677.418090 347.623464 686.881408 C341.014883 698.945495 338.184347 712.318359 333.657522 725.103820 C330.564138 733.840759 327.199423 742.276428 322.700094 750.627685 C314.427389 765.982788 307.701559 782.370727 303.479025 799.632934 C301.375692 808.231567 296.319570 816.097473 294.113027 824.683838 C291.511618 834.806945 285.514517 843.184509 281.860861 852.636840 C277.744467 863.286255 274.815267 874.415832 271.733572 885.438354 C268.301504 897.714050 265.068411 910.054809 262.154440 922.462524 C260.284078 930.426635 259.161825 938.565673 257.669058 946.619873 C257.327932 948.460449 257.169760 950.434692 256.368276 952.074096 C251.850851 961.314453 251.181967 971.386840 249.628195 981.298584 C248.362264 989.374145 246.370062 997.338501 245.175070 1005.422241 C243.563330 1016.325317 239.069357 1027.102172 243.199499 1038.361572 C240.489614 1042.847778 243.433599 1047.150024 243.774679 1051.497558 C245.376989 1071.921508 249.489523 1091.825927 257.715322 1110.688232 C264.247000 1125.665893 269.608938 1141.111328 275.921316 1156.144409 C280.692770 1167.507812 287.695822 1177.928833 293.627249 1188.812133 C297.476126 1195.874023 301.492788 1202.869995 304.862356 1210.159912 C307.834158 1216.589111 303.454428 1224.106445 294.560934 1225.559814 C285.993887 1226.959961 277.573843 1229.559570 268.116476 1226.270019 C258.680349 1222.987915 248.037130 1223.176269 237.923193 1221.842773 C232.866232 1221.176025 227.821554 1220.385009 222.748342 1219.882202 C218.724279 1219.483398 216.898184 1220.893432 215.377157 1225.426147 C212.226812 1234.814453 211.879797 1244.595214 210.037069 1254.110473 C208.878210 1260.094238 211.000112 1266.778930 211.982427 1273.097656 C213.829901 1284.981201 217.033636 1296.566772 218.048651 1308.694702 C218.723715 1316.760498 218.823568 1325.073120 221.410910 1333.153930 C223.425512 1339.446045 223.182531 1346.503296 223.643255 1353.240966 C224.444250 1364.955200 224.903066 1376.692993 225.732122 1388.404907 C226.091619 1393.483642 227.093145 1398.513672 227.657522 1403.582031 C228.186056 1408.328491 227.270651 1413.000000 229.370230 1417.883911 C230.942510 1421.541137 229.622808 1426.417724 229.691061 1430.749878 C229.928518 1445.821777 232.021398 1460.617309 235.539389 1475.296630 C237.049780 1481.599121 237.174322 1488.260498 237.644735 1494.779297 C238.441915 1505.826660 238.703619 1516.920654 239.780828 1527.937255 C240.611593 1536.433715 242.373403 1544.837768 243.653066 1553.293213 C243.850302 1554.596679 243.576849 1555.965088 243.697042 1557.287475 C244.639868 1567.660644 242.365805 1578.054687 245.315847 1588.561645 C246.756704 1593.693481 243.914587 1599.900512 243.835821 1605.632202 C243.785055 1609.327636 242.378683 1613.229492 245.374502 1617.031494 C246.444998 1618.390136 243.937796 1622.228149 243.767813 1624.977905 C243.459921 1629.958618 243.427679 1634.989135 243.761968 1639.966430 C244.021597 1643.831787 245.567846 1647.652832 245.534765 1651.484863 C245.496816 1655.880615 243.866445 1660.256469 243.772329 1664.659057 C243.508856 1676.986328 243.846716 1689.326049 243.604009 1701.654174 C243.497457 1707.066406 243.439382 1712.379028 242.163244 1717.937378 C240.730276 1724.178955 244.176794 1731.397339 243.477285 1737.975708 C240.601751 1765.017089 242.103231 1792.103637 241.679876 1819.165771 C241.576757 1825.757324 242.393545 1832.239746 243.398413 1838.753051 C243.791784 1841.302734 240.902059 1845.259765 241.978262 1846.616943 C244.259466 1849.494018 243.280386 1850.828125 241.841101 1853.287475 C240.969335 1854.777221 241.471868 1857.220214 241.724096 1859.187744 C242.246496 1863.263305 243.266867 1867.286377 243.608465 1871.370483 C243.940649 1875.342651 244.260305 1879.475464 243.519415 1883.333007 C242.761419 1887.279785 243.519979 1891.652099 244.262869 1894.625000 C248.053030 1909.792480 243.353414 1925.230713 246.872427 1940.338134 C247.973135 1945.063598 245.643057 1950.487915 245.837225 1955.555786 C246.005407 1959.945190 244.236379 1964.436157 247.299002 1968.970581 C248.511190 1970.765503 245.892095 1974.838012 245.751440 1977.907348 C244.939566 1995.623901 244.412756 2013.353393 243.628454 2031.071411 C243.460333 2034.869018 242.225347 2038.637085 242.218725 2042.420044 C242.212301 2046.084350 244.311087 2050.040405 243.477529 2053.364868 C240.129202 2066.720092 242.127447 2080.191040 241.753103 2093.587768 C241.305029 2109.621704 244.727056 2125.198364 249.834066 2140.217895 C255.612600 2157.212524 264.868765 2172.298950 278.904379 2183.949829 C280.994680 2185.684936 283.661459 2187.162964 286.286642 2187.745239 C302.195059 2191.274536 318.168020 2194.513794 334.124410 2197.825561 C334.763540 2197.958130 335.454153 2197.838012 336.120779 2197.843139 C353.530844 2197.981079 370.911672 2197.709839 388.314321 2199.623901 C400.137869 2200.924438 411.990011 2198.438354 423.642538 2195.890747 C425.233114 2195.543090 426.965200 2195.842651 428.631796 2195.842651 C450.630941 2195.842651 472.666128 2195.122680 494.610281 2196.221313 C502.608663 2196.621948 511.194631 2196.222046 519.020254 2199.733764 C520.684927 2200.480835 522.971182 2199.842651 524.971121 2199.842651 C534.970754 2199.842651 544.978262 2199.590698 554.968008 2199.905151 C568.032705 2200.316528 581.238088 2200.190796 594.082449 2202.208862 C601.898123 2203.436645 609.996511 2202.027221 617.217581 2204.158081 C631.409719 2208.346069 647.583975 2208.943237 657.523001 2222.661743 C661.052908 2227.534301 666.551992 2230.376831 668.569326 2237.142456 C670.122915 2242.352905 667.464163 2243.316528 665.190298 2245.889770 C660.688528 2250.984741 653.961111 2251.367309 648.314382 2253.475708 C642.194937 2255.760376 634.987295 2255.040405 628.284414 2255.873657 C617.504507 2257.213501 606.618032 2257.294067 595.899832 2259.666626 C588.714102 2261.257202 581.126272 2261.972778 573.774771 2261.677124 C558.384451 2261.057983 542.889273 2263.994262 527.544973 2260.050171 C524.525442 2259.274047 520.799917 2261.798950 517.431082 2261.703491 C511.693289 2261.541381 505.631582 2261.485473 500.343405 2259.598510 C493.536215 2257.169555 486.834524 2258.105102 480.084249 2257.882690 C456.698049 2257.111938 433.247213 2257.259155 409.949819 2255.422729 C402.124197 2254.806030 394.226339 2254.698608 386.388082 2254.013549 C377.787466 2253.262085 368.935018 2254.810669 360.434835 2253.622436 C346.697683 2251.701782 332.780722 2253.361938 319.301473 2251.383422 C309.461904 2249.939087 300.878622 2253.125854 291.736135 2254.004760 C286.825338 2254.476684 282.449270 2258.488159 281.950064 2262.932983 C280.313467 2277.505737 274.406393 2291.473022 275.711782 2306.412964 C276.184255 2311.820190 277.043112 2317.192749 277.672140 2322.587524 C278.263052 2327.655151 277.498953 2332.610229 279.330953 2337.879028 C281.488607 2344.084106 280.711019 2351.252075 281.755819 2357.916381 C283.118093 2366.605835 284.974478 2375.220092 286.703421 2383.849487 C288.304220 2391.839477 290.061331 2399.797973 291.669546 2407.786255 C293.715353 2417.948120 295.607199 2428.141479 297.702352 2438.293090 C299.599508 2447.485473 301.663748 2456.643432 303.685873 2465.809692 C305.301840 2473.135131 307.000662 2480.442016 308.597586 2487.771606 C310.331198 2495.728149 311.764150 2503.757446 313.743154 2511.651245 C315.776632 2519.762329 318.535330 2527.692016 320.570181 2535.802856 C323.154318 2546.103393 325.347463 2556.502563 327.674856 2566.866821 C329.593466 2575.410522 331.628012 2583.932983 333.293722 2592.526489 C334.382681 2598.143921 335.014974 2603.859253 335.658682 2609.552368 C337.213796 2623.306762 339.898855 2636.784057 344.645010 2649.834350 C352.474905 2671.363647 361.889181 2692.147094 373.734426 2711.772827 C376.182546 2715.828979 378.967794 2719.799194 382.199758 2723.244262 C396.436544 2738.420044 409.861746 2754.581665 425.527792 2768.136108 C445.890219 2785.753540 469.935964 2797.756714 495.766287 2805.860473 C509.031546 2810.022583 522.265737 2814.287964 535.464895 2818.654907 C551.581350 2823.987426 567.608938 2829.590210 583.745474 2834.860229 C597.264517 2839.275512 610.711782 2844.108520 624.515798 2847.389770 C635.322988 2849.958862 646.593923 2851.123413 657.719656 2851.666870 C671.270559 2852.328979 684.658743 2853.790405 698.077444 2855.664184 C705.270315 2856.668335 712.730215 2855.588989 720.047964 2855.923950 C725.790090 2856.186157 731.604055 2856.730102 737.175344 2858.043335 C739.716604 2858.642212 741.926626 2861.223266 743.931936 2863.255737 C744.818228 2864.154174 744.822256 2865.922729 745.226675 2867.296508 C743.968801 2867.478637 742.562185 2868.121460 741.476065 2867.771118 C731.256033 2864.473266 720.775137 2863.526733 710.110586 2863.822876 C705.780752 2863.942993 701.444692 2863.819458 697.111624 2863.846801 C683.079153 2863.935913 669.129263 2863.243530 655.414419 2859.894653 C653.841543 2859.510620 652.088125 2859.751831 650.428213 2859.857299 C639.733206 2860.537475 629.517446 2858.994262 619.489492 2854.868286 C613.506887 2852.407104 606.895559 2851.478149 600.572256 2849.839721 C590.651358 2847.269653 580.626882 2844.359985 571.137014 2841.110962 C561.090200 2837.671508 550.965078 2833.597778 540.856741 2829.847290 C521.989858 2822.847534 502.671255 2817.283325 483.495962 2811.271118 C473.558065 2808.155151 463.123281 2804.252319 454.027822 2797.972046 C442.479177 2789.997924 429.660055 2783.775512 418.556509 2775.272583 C409.383688 2768.248901 401.912374 2759.004516 393.677786 2750.753296 C391.357321 2748.428100 388.859365 2746.262085 386.703665 2743.794799 C384.185202 2740.912475 381.926565 2737.800415 379.600118 2734.753540 C373.222189 2726.400512 366.810964 2718.072387 360.529013 2709.647583 C357.551138 2705.653930 355.498983 2700.564331 354.205557 2696.332885 C351.163168 2686.379272 345.167806 2678.021362 341.720968 2668.450561 C340.149984 2664.088745 338.992788 2659.576049 337.705099 2655.115356 C337.527487 2654.500122 337.970816 2653.480102 337.638235 2653.167846 C328.821646 2644.887573 331.110800 2633.716186 329.551077 2623.457397 C328.191854 2614.517212 325.711935 2605.747436 323.741384 2596.899536 C322.847647 2592.886596 322.744741 2588.579467 322.297140 2584.682251 C321.417105 2577.019165 319.616964 2569.778686 317.782614 2562.385376 C315.367361 2552.650512 314.275228 2542.566284 311.538717 2532.937622 C307.606924 2519.103393 301.585867 2505.819214 301.624319 2491.040893 C301.627279 2489.884643 300.849935 2488.719360 300.403982 2487.570190 C294.988485 2473.612182 293.982626 2458.770141 291.635275 2444.192505 C291.295523 2442.082641 290.349172 2440.070434 289.680197 2438.014282 C286.098410 2427.003296 285.859457 2415.302124 281.985372 2404.222534 C279.104330 2395.983032 279.264059 2386.720825 277.620474 2377.998413 C275.299337 2365.680542 272.511831 2353.451294 270.053366 2341.158081 C269.609213 2338.936889 269.840475 2336.587036 269.670980 2334.303344 C269.146322 2327.233520 270.899557 2320.060424 267.856588 2313.055542 C266.760305 2310.531616 266.696035 2306.657592 267.869619 2304.223266 C271.090170 2297.543090 268.796926 2290.656128 269.728048 2283.968139 C270.861593 2275.826294 271.527243 2267.484497 273.893850 2259.683960 C276.684286 2250.486206 284.316976 2245.045532 293.541159 2244.058960 C307.509298 2242.564819 321.630361 2242.016235 335.688223 2241.988891 C348.410238 2241.964233 361.370260 2241.899047 373.793539 2244.192016 C386.967459 2246.623169 399.968771 2245.322143 413.030294 2245.778198 C438.412130 2246.664672 463.995382 2245.507934 489.139669 2248.346801 C510.975881 2250.811645 532.679006 2251.713012 554.536306 2251.931030 C557.932974 2251.964965 561.387808 2253.973022 564.694387 2253.683227 C572.579885 2252.992553 580.382803 2251.401245 588.238150 2250.310424 C594.885244 2249.387817 601.540945 2248.431274 608.225393 2247.894409 C618.933340 2247.034546 629.821340 2247.377807 640.335073 2245.522583 C646.815847 2244.379028 654.278982 2244.320678 659.511953 2238.942993 C660.354116 2238.077514 662.775259 2237.497192 660.322622 2235.390747 C653.744070 2229.740356 649.010244 2221.717895 640.004263 2219.222290 C632.801504 2217.226440 625.565786 2215.176391 618.212393 2213.932006 C600.913137 2211.004272 583.282705 2211.231811 565.938040 2209.363647 C552.448599 2207.910766 538.966482 2209.492065 525.768057 2207.500854 C517.998098 2206.328247 509.821585 2207.450561 502.312612 2203.975952 C500.390768 2203.086792 497.707846 2203.842651 495.374594 2203.842651 C480.041860 2203.842651 464.703482 2203.586059 449.378103 2203.921997 C436.531942 2204.203491 423.441275 2203.821167 410.935202 2206.218139 C398.070394 2208.684204 385.395712 2207.651001 372.695791 2207.540405 C365.900228 2207.481567 359.310720 2206.744018 352.307852 2207.275268 C342.429434 2208.024536 332.239736 2204.948364 322.210958 2203.335083 C316.002859 2202.336303 309.873281 2200.207885 303.661367 2200.001098 C287.805990 2199.473022 274.611654 2192.923706 262.408560 2183.570678 C254.841848 2167.705200 241.483587 2154.761108 239.511495 2136.005005 C238.466543 2126.066772 235.618887 2116.323120 233.733785 2106.463256 C233.364874 2104.533813 233.680593 2102.473755 233.680593 2100.473755 C233.680593 2091.140747 233.477087 2081.802612 233.722448 2072.476196 C234.253179 2052.301635 233.771154 2031.977661 236.271398 2012.036499 C237.321707 2003.659790 234.986807 1994.578491 239.559576 1986.551635 C240.154562 1985.507202 239.074209 1983.530883 238.823461 1981.977417 C238.419027 1979.471801 237.207373 1976.723510 237.825689 1974.489868 C240.742849 1963.952270 239.524053 1953.738647 238.039480 1943.057739 C236.448660 1931.612671 237.914205 1919.768798 237.593588 1908.111450 C237.399145 1901.041504 236.475363 1893.979980 235.643728 1886.942627 C234.850271 1880.228271 237.868887 1873.141845 233.680593 1866.767456 C237.458364 1861.653320 233.396307 1856.559936 233.498449 1851.421386 C233.928945 1829.764038 233.426290 1808.089599 233.744879 1786.428466 C234.144552 1759.254028 234.267294 1732.041504 235.902761 1704.929443 C237.368444 1680.631714 237.765325 1656.361938 237.587103 1632.061889 C237.540212 1625.666992 235.927023 1619.290405 235.778478 1612.888061 C235.552267 1603.137695 237.655722 1593.132690 237.084768 1583.756225 C236.039495 1566.590454 237.545370 1548.931396 231.720663 1532.193481 C231.410238 1531.301513 231.728933 1530.204834 231.673223 1529.207885 C231.018026 1517.483886 230.888845 1505.697143 229.520742 1494.056152 C228.275778 1483.462890 225.416036 1473.069702 223.771520 1462.509765 C222.632101 1455.193115 222.359869 1447.742309 221.676061 1440.353637 C221.236059 1435.599243 223.012808 1430.546020 219.723394 1426.150268 C219.403616 1425.722900 219.435095 1424.712768 219.717749 1424.202880 C223.493719 1417.391357 220.218725 1410.661132 219.852972 1403.830688 C219.268301 1392.912353 218.311743 1382.129150 215.757421 1371.479736 C215.228216 1369.273437 215.665487 1366.831543 215.683172 1364.498413 C215.766271 1353.541870 213.930517 1342.853881 211.824606 1332.128296 C210.402624 1324.886352 209.461996 1317.325195 209.884481 1309.997680 C210.546911 1298.509155 206.269049 1287.904541 205.350256 1276.717895 C204.540212 1266.855224 200.822561 1257.607177 203.237921 1247.029663 C205.111715 1238.823730 204.584844 1230.093505 207.476248 1221.718017 C210.347586 1213.400512 214.845663 1210.095581 223.381857 1212.513061 C225.489111 1213.109741 227.712057 1213.891845 229.828451 1213.756103 C237.657263 1213.254394 244.868902 1215.118530 252.226187 1217.700195 C264.490011 1222.003906 277.111532 1220.289917 289.499563 1217.753418 C295.187124 1216.588867 297.562399 1210.364257 294.396261 1205.618164 C284.554678 1190.865356 276.940328 1175.033203 269.202291 1159.080932 C260.970693 1142.111206 253.706655 1124.705688 246.933187 1107.288208 C242.181829 1095.070312 238.073706 1081.869384 237.498434 1068.115356 C237.212973 1061.290771 236.046560 1054.118896 233.456014 1047.858276 C228.718298 1036.408569 233.746923 1025.605713 234.156988 1014.553100 C234.374349 1008.693725 236.840399 1002.954712 237.612234 997.072387 C240.923742 971.834106 247.092550 947.272583 253.241903 922.602417 C257.083273 907.191589 261.986502 892.024353 265.259146 876.594909 C269.501638 856.593017 276.964895 838.235107 285.436117 819.858459 C291.993856 805.632629 296.309072 790.376831 301.696859 775.606445 C304.348165 768.337890 307.724417 761.456237 311.437521 754.611755 C315.808004 746.555542 318.392965 737.523193 321.670431 728.883117 C327.352896 713.902954 331.965414 698.395752 339.087820 684.139343 C342.165609 677.978759 342.724203 671.104675 346.808920 665.216125 C350.551596 659.820617 350.887472 652.129821 354.390707 646.484436 C359.683340 637.955444 363.504171 628.970825 366.983175 619.653442 C372.260641 605.519653 378.055746 591.578247 383.706777 577.585632 C384.859335 574.731750 385.926046 571.692993 387.754171 569.288269 C395.291952 559.372985 398.178457 547.352783 401.284475 535.925110 C405.280477 521.222961 408.396932 506.385254 415.680593 492.833679 C413.619680 483.850586 419.462271 476.234741 420.038412 467.515197 C420.645773 458.322937 423.954855 449.283081 426.325521 440.240051 C429.315847 428.833679 431.502249 417.057129 435.979971 406.245636 C440.327505 395.748596 442.143514 384.472534 449.130087 374.550689 C455.484274 365.527008 457.239279 353.375122 461.849325 342.968811 C464.355917 337.310638 464.732199 330.958252 468.517813 325.667541 C470.162435 323.369110 469.191213 319.371521 470.209677 316.422516 C474.536245 303.895019 478.424612 291.130493 483.956808 279.136963 C487.293325 271.903564 491.674673 265.013153 494.816000 257.622406 C506.982412 228.998077 519.497610 200.496307 530.560659 171.445373 C533.653799 163.322967 536.269766 156.353607 544.217092 152.215240 C547.616934 150.444885 541.508901 148.577575 543.817739 146.783706 C547.794241 143.694183 548.562185 138.032638 551.831900 135.283737 C556.280630 131.543579 558.846426 126.909927 562.305227 122.689483 C568.009878 115.728622 574.467275 109.462371 579.193411 101.614212 C580.872732 98.825454 585.163137 97.720077 587.279104 95.063644 C595.748098 84.431717 606.732229 75.944259 613.666006 64.031067 C613.969656 63.509399 613.874380 62.640808 614.275503 62.307434 C623.750418 54.432373 629.879934 43.231155 641.781729 37.483413 C649.785513 33.618087 656.901358 27.724075 665.607046 24.937545 C667.088064 24.463470 668.621023 24.018112 670.158438 23.882934 C672.924246 23.639770 676.343252 24.707214 676.467092 20.094322 C676.469595 20.002807 677.027212 19.925857 677.326040 19.842689 C689.886343 16.346992 699.932913 7.214805 712.589285 4.025482 C717.183279 2.867828 721.966116 2.253273 726.700735 1.900909 C738.077383 1.054199 749.479483 -0.056198 760.865835 0.002212 C772.181509 0.060249 782.197439 4.139900 790.945852 11.865036 C797.555776 17.701782 805.199514 22.368393 812.388235 27.548675 C824.349111 36.167907 835.354055 45.496231 843.443472 58.300201 C851.547842 71.127990 861.128530 83.027206 870.136770 95.278564 C878.600759 106.789611 887.115042 118.264419 895.701956 129.683899 C899.548757 134.799621 903.926809 139.536056 907.533926 144.807235 C913.897879 154.106964 919.118215 164.279846 926.159292 173.004120 C936.321524 185.595703 944.228079 199.624817 953.483511 212.775055 C964.512869 228.445739 974.463247 244.895019 985.866629 260.276306 C993.022268 269.928039 997.041983 281.149475 1003.661672 290.969665 C1005.928823 294.332824 1007.631277 298.126678 1010.181631 301.240631 C1025.552053 320.007873 1036.446951 341.394958 1045.996389 363.429290 C1050.146170 373.004669 1055.265188 382.131530 1058.076223 392.477081 C1060.287039 400.613464 1065.220388 408.412109 1070.412527 415.245056 C1078.826467 426.317810 1083.715505 439.200073 1089.645681 451.368957 C1099.221365 471.018371 1108.823782 490.743164 1118.302542 510.426696 C1125.418630 525.203918 1132.023489 540.152649 1137.884695 555.349121 C1146.647390 578.067993 1159.509329 598.967834 1166.036062 622.741211 C1169.334768 634.756836 1176.901174 645.533142 1181.553030 657.260437 C1188.850027 675.657104 1197.226858 693.751281 1199.809133 713.734924 C1200.226736 716.967468 1202.809500 719.867736 1203.597952 723.114318 C1206.474050 734.958374 1208.641775 746.985412 1211.841360 758.735229 C1213.384451 764.402038 1215.299368 769.960571 1216.737234 775.708740 C1220.044485 788.930053 1222.744314 802.097107 1224.006033 815.776001 C1225.389456 830.776550 1226.939382 845.881591 1231.474295 860.554260 C1235.156668 872.468567 1236.692068 885.028564 1239.767874 897.153076 C1243.094900 910.268188 1243.391653 923.957641 1247.655081 936.868286 C1247.853567 937.469360 1247.659109 938.193847 1247.683645 938.859619 C1248.346365 956.916259 1250.058279 975.025268 1249.153494 993.002685 C1248.804129 999.946045 1250.040212 1006.579589 1249.751028 1013.374511 C1249.439504 1020.694214 1249.223562 1028.072387 1249.779592 1035.363037 C1250.808645 1048.858764 1251.160208 1062.374267 1251.878225 1075.873169 C1252.383718 1085.374878 1250.903616 1094.783935 1251.709646 1104.223266 C1252.087332 1108.646118 1250.279592 1113.313964 1253.559744 1117.491577 C1254.369314 1118.522583 1254.108572 1120.871093 1253.612600 1122.374023 C1249.791311 1133.951782 1252.255545 1145.841674 1251.759939 1157.569946 C1251.366140 1166.886352 1251.655081 1176.232666 1251.685842 1185.565551 C1251.753103 1205.942993 1250.496511 1226.174804 1245.738821 1246.091797 C1244.557058 1251.039184 1247.652883 1256.627563 1243.680593 1261.248779 C1245.904959 1270.883300 1240.110525 1279.263061 1239.278128 1288.554809 C1238.436697 1297.946655 1234.632864 1307.146850 1231.483084 1316.207275 C1230.679006 1318.520507 1227.728933 1320.930664 1225.270437 1321.684936 C1212.205618 1325.693603 1199.903982 1331.350097 1187.962454 1337.869384 C1184.952932 1339.512451 1182.262625 1341.772949 1179.188650 1343.259643 C1167.532766 1348.896484 1155.780935 1354.335083 1144.061697 1359.840698 C1140.714041 1361.413452 1137.310720 1362.874267 1134.008962 1364.537231 C1119.682058 1371.752685 1105.299612 1378.797729 1090.040823 1383.945190 C1085.992239 1385.310791 1081.846609 1387.332275 1078.656668 1390.101928 C1072.217092 1395.693481 1064.286428 1397.167724 1056.737356 1400.103393 C1040.186819 1406.539184 1024.537405 1414.858642 1010.378164 1425.896362 C1005.327932 1429.833130 999.341360 1433.439087 993.226980 1434.952026 C981.858450 1437.764892 973.144583 1445.046875 963.937307 1451.084350 C951.899099 1458.977905 939.438711 1466.085327 927.015615 1473.239013 C919.960379 1477.301880 912.708242 1480.832275 906.283499 1486.008789 C902.490225 1489.065063 897.466238 1490.538818 893.354910 1493.265991 C881.139395 1501.368530 868.905508 1509.359008 855.779531 1516.012085 C850.584707 1518.645263 846.351614 1523.176025 841.180593 1527.342651 C840.631765 1528.460449 840.582937 1529.078369 840.534170 1529.696167 C840.916311 1529.078369 841.298452 1528.460449 841.680593 1527.842651 M491.680593 274.842651 C492.080587 275.109314 492.480612 275.375976 492.880606 275.642639 C492.813925 275.042633 492.747274 274.442657 491.680593 274.842651 z"/><path class="selected"  fill="#000000" opacity="1.000000" stroke="none" 
 	d="
M705.680593 1257.842651 C704.913137 1265.889282 704.756704 1273.117920 704.407949 1280.047607 C703.990591 1288.338867 703.270254 1296.883056 703.436392 1305.354980 C703.694265 1318.506469 703.635549 1331.922729 701.302847 1344.790283 C699.153066 1356.648925 699.787588 1368.322998 699.978689 1380.020141 C700.074514 1385.886840 702.168936 1391.552124 700.995779 1397.848510 C700.001821 1403.182739 701.770803 1408.969726 701.578604 1414.530761 C701.330313 1421.715698 700.953237 1429.002319 699.483206 1436.004150 C698.365835 1441.326416 703.145864 1445.775634 699.983023 1451.551880 C697.673147 1455.770507 701.441030 1461.903564 697.883657 1466.639526 C700.559194 1484.785644 695.243887 1501.981811 691.752859 1519.419433 C690.625601 1525.050171 690.061880 1530.834594 689.736441 1536.577026 C688.902517 1551.289184 689.308157 1566.145996 687.357412 1580.695556 C685.955252 1591.153320 687.055288 1601.671142 685.434194 1611.866577 C682.349356 1631.268066 682.859182 1650.794922 681.392019 1670.218261 C677.711355 1718.947754 680.780020 1767.678466 679.803274 1816.392578 C679.615408 1825.764648 681.238027 1835.160156 681.582937 1844.561035 C681.747183 1849.039062 682.045034 1854.145507 680.155264 1857.895385 C678.070913 1862.031616 681.698660 1865.154663 680.046682 1869.217163 C678.841970 1872.179321 681.391592 1876.494384 681.594107 1880.242675 C681.917227 1886.224365 681.515615 1892.241577 681.711660 1898.234375 C682.291494 1915.958374 681.605703 1933.880981 684.122610 1951.335327 C686.165884 1965.505249 686.362112 1979.887573 689.501943 1993.946899 C691.176321 2001.444702 690.769949 2009.383667 691.747305 2017.066772 C692.783987 2025.217651 694.489675 2033.281616 695.634939 2041.421020 C696.529470 2047.778442 697.034597 2054.191528 697.676504 2060.583618 C699.323110 2076.978149 701.361502 2093.278442 705.528799 2109.301391 C707.127615 2115.448608 706.350881 2122.196899 707.809866 2128.400024 C711.589407 2144.470825 710.262686 2161.276245 715.489065 2177.172241 C717.351065 2182.835327 716.778555 2189.259155 717.730947 2195.269897 C719.557913 2206.800659 721.840750 2218.259155 723.632254 2229.794799 C725.197256 2239.871460 726.071890 2250.059204 727.754202 2260.113647 C729.619070 2271.259643 731.960073 2282.330200 734.267141 2293.397583 C736.628836 2304.726684 739.024893 2316.053833 741.721548 2327.306274 C745.829519 2344.447387 746.799795 2362.125366 751.410635 2379.238403 C754.208547 2389.623169 754.048391 2400.772339 755.768179 2411.489624 C757.357168 2421.392456 759.361318 2431.255249 761.739553 2440.999633 C769.377249 2472.293823 784.522268 2500.962524 793.921133 2531.670044 C794.713552 2534.259155 798.925650 2535.777465 801.498342 2537.855835 C802.812490 2538.917846 804.014273 2540.118286 805.266836 2541.256225 C803.957510 2542.118286 802.724417 2543.527954 801.322256 2543.723266 C798.775015 2544.077758 798.536611 2543.260864 799.241751 2547.022827 C801.614309 2559.680053 807.408682 2571.137329 810.384451 2583.506469 C814.025137 2598.639282 818.170400 2613.654419 821.601126 2628.832641 C824.646780 2642.307006 827.058645 2655.925903 829.629995 2669.504028 C829.995535 2671.434692 829.564138 2673.501831 829.700552 2675.492065 C830.321707 2684.551147 831.057363 2693.602417 831.615286 2702.664917 C831.672842 2703.600464 830.823599 2704.591919 830.395193 2705.557251 C830.156973 2704.656128 829.850393 2703.766723 829.691336 2702.851684 C828.339224 2695.075317 826.908010 2687.310424 825.706655 2679.510376 C824.110403 2669.145385 822.945791 2658.709106 821.131460 2648.384887 C819.672476 2640.082153 817.536672 2631.897583 815.673086 2623.666870 C815.053945 2620.932739 814.434439 2618.193481 813.667227 2615.498901 C805.689016 2587.477417 797.691824 2559.461792 789.648733 2531.458862 C789.228994 2529.997680 788.379751 2528.652221 787.663381 2527.287964 C787.401052 2526.788696 786.943655 2526.391723 786.575125 2525.948120 C786.276968 2526.491089 785.713796 2527.041381 785.728140 2527.576049 C785.780142 2529.507202 785.688345 2531.539672 786.254751 2533.344116 C789.677664 2544.246704 793.751455 2554.967895 796.685354 2565.995239 C800.775137 2581.367553 804.058828 2596.954223 807.679067 2612.451049 C809.951040 2622.176635 812.307485 2631.884155 814.433828 2641.641479 C815.707571 2647.486206 816.569021 2653.420044 817.691824 2659.298950 C818.928518 2665.774780 821.223745 2672.222534 821.300894 2678.703247 C821.405325 2687.484008 823.853567 2695.626098 825.676687 2703.981567 C827.611502 2712.848755 830.555349 2721.661987 831.078421 2730.614624 C831.447927 2736.940307 834.782522 2743.277465 831.814566 2749.890991 C830.943106 2751.832885 831.680593 2754.496948 831.680593 2756.829956 C831.680593 2786.825561 831.596121 2816.821655 831.780386 2846.816040 C831.805227 2850.863403 830.610891 2854.937133 833.331533 2859.208862 C834.675222 2861.318237 831.555105 2865.838501 831.855032 2869.140503 C832.385061 2874.977172 832.368521 2880.669799 831.814932 2886.509399 C831.220022 2892.785522 831.680593 2899.161499 831.680593 2905.494018 C831.680593 2917.492309 832.540762 2929.569946 831.440847 2941.466430 C830.320547 2953.583374 829.560049 2965.772583 828.217642 2977.885864 C827.287649 2986.278198 822.979299 2994.549926 825.617422 3003.355835 C825.961111 3004.503051 825.792654 3006.067993 825.279226 3007.167358 C818.724661 3021.201294 815.212454 3035.954223 813.560415 3051.345581 C812.140127 3064.577514 809.812612 3077.719848 807.600027 3090.853637 C806.937918 3094.783813 804.993765 3098.486938 804.195242 3102.407592 C802.496328 3110.748169 801.213308 3119.172485 799.665029 3127.544799 C798.408621 3134.338989 797.085989 3141.123657 795.585684 3147.866577 C795.406179 3148.673462 793.621694 3149.926147 793.104971 3149.711547 C791.178518 3148.911010 788.505056 3147.949829 787.908193 3146.370239 C787.026846 3144.036987 786.737722 3140.619506 787.846487 3138.546020 C792.284780 3130.246460 792.164236 3120.967895 794.228567 3112.189331 C797.027029 3100.288940 799.503775 3088.296264 801.618276 3076.255249 C805.208120 3055.811889 806.677053 3035.074829 813.081411 3015.028198 C816.888540 3003.111450 817.627554 2990.208130 819.669790 2977.735962 C822.235830 2962.065063 822.173941 2946.102905 824.103811 2930.453979 C826.342581 2912.300415 825.091177 2894.291626 825.533682 2876.234497 C825.733328 2868.085571 823.281912 2859.807006 823.966360 2851.751587 C824.721365 2842.865844 823.379568 2834.173950 823.622610 2825.386840 C823.880606 2816.062133 823.680593 2806.724487 823.680593 2797.392456 C823.680593 2788.060424 823.895315 2778.721557 823.590994 2769.399536 C823.436270 2764.659790 822.190786 2759.963256 821.801016 2755.217163 C821.713980 2754.156372 823.147451 2752.970825 823.880972 2751.842651 C828.758596 2755.497924 827.502981 2751.299926 827.684683 2748.886352 C828.539968 2737.526001 825.232229 2726.803100 822.821462 2715.914917 C820.850454 2707.012817 819.357229 2698.004272 817.685232 2689.036743 C815.665457 2678.204223 812.584890 2667.428589 811.946585 2656.512573 C811.068350 2641.492797 805.956655 2627.487182 803.375540 2612.902710 C800.459890 2596.427124 795.477774 2580.287719 790.897817 2564.142944 C784.053152 2540.014526 776.750906 2516.016235 769.688772 2491.949340 C764.978567 2475.897827 760.677725 2459.716674 755.549673 2443.800903 C752.726553 2435.038940 748.102346 2426.866089 745.129568 2418.141723 C740.851370 2405.585571 736.227896 2393.133178 732.051016 2380.587036 C727.720938 2367.580932 726.678335 2353.514282 723.576406 2340.054565 C721.072134 2329.188354 717.356436 2318.605102 714.705007 2307.767456 C712.026052 2296.817016 709.959097 2285.715454 707.690908 2274.666381 C705.482168 2263.906372 703.425772 2253.114868 701.175222 2242.363891 C699.446157 2234.103881 697.257315 2225.932983 695.751089 2217.635620 C694.107107 2208.578979 694.574331 2198.818969 691.335562 2190.442505 C685.677053 2175.808227 687.830984 2159.889526 681.971731 2145.341430 C679.549002 2139.325805 680.533560 2131.987915 679.633718 2125.296508 C678.494375 2116.824096 676.998892 2108.399536 675.700918 2099.947876 C675.550894 2098.971069 675.753897 2097.945190 675.669912 2096.952270 C672.934439 2064.608276 674.015066 2032.188110 673.599905 1999.795044 C673.402578 1984.401001 672.296316 1969.019653 671.705801 1953.628540 C671.471487 1947.520874 672.064260 1941.415893 671.752066 1935.285644 C671.430410 1928.969604 671.680593 1922.624389 671.680593 1916.291992 C671.680593 1909.626342 671.843496 1902.955200 671.625662 1896.296753 C671.469839 1891.532104 672.807669 1886.621826 669.822500 1882.033325 C668.908499 1880.628173 668.949880 1877.713256 669.806448 1876.197631 C673.607168 1869.472412 669.366690 1862.916870 669.890737 1856.460693 C671.257131 1839.626831 666.806692 1822.611328 671.633901 1805.923095 C671.989736 1804.692993 671.593679 1803.263672 671.693411 1801.938110 C674.402090 1765.923095 673.543386 1729.843139 673.676687 1693.781616 C673.703787 1686.449463 673.453604 1679.108520 673.730642 1671.786743 C674.217092 1658.931152 674.772879 1646.065429 677.641958 1633.438720 C677.929983 1632.171020 677.632498 1630.779297 677.687979 1629.448486 C678.343252 1613.726440 678.315908 1597.935669 679.870230 1582.302368 C681.537527 1565.533691 682.247854 1548.665649 684.163015 1532.003418 C685.637808 1519.172607 684.271170 1506.420532 685.840322 1493.802124 C687.726736 1478.632080 686.560903 1463.372436 687.946096 1448.298950 C689.773428 1428.412841 691.690542 1408.587890 691.776358 1388.597778 C691.796682 1383.871948 693.607046 1379.146362 693.568472 1374.429077 C693.456411 1360.717895 690.039175 1347.471191 687.026296 1334.190307 C685.920889 1329.317627 684.387319 1324.501098 683.760977 1319.568603 C682.184683 1307.153686 681.472341 1294.616455 679.563162 1282.259643 C677.236807 1267.202392 676.200430 1252.118164 675.318899 1236.926147 C674.787893 1227.775024 674.968374 1218.396118 673.400503 1209.443847 C670.988516 1195.671997 673.662100 1181.680297 671.155264 1168.328003 C669.497427 1159.498047 671.627615 1150.438842 668.005239 1141.755005 C666.662649 1138.536621 669.443533 1133.792724 669.590628 1129.717407 C669.890982 1121.396118 669.442373 1113.048095 669.735464 1104.726318 C670.195486 1091.663696 669.908377 1078.429443 672.045645 1065.619506 C673.631033 1056.117797 673.012991 1046.779052 673.748220 1037.396606 C674.194265 1031.705444 675.344656 1026.071655 676.109671 1020.402710 C677.109365 1012.994629 678.095327 1005.583740 678.976248 998.160888 C679.354788 994.971435 679.227102 991.713379 679.720877 988.547485 C681.621633 976.362426 683.782156 964.217407 685.637319 952.025634 C686.553091 946.007324 686.763357 939.879150 687.734854 933.872192 C689.546194 922.671875 691.886465 911.555359 693.605215 900.342468 C694.677297 893.348449 694.757070 886.206054 695.731497 879.192688 C698.099295 862.151916 699.597097 845.113891 700.013540 827.858337 C700.324453 814.981323 703.720083 802.183776 705.669668 789.339904 C707.718191 775.844421 708.913931 762.163696 711.897879 748.881958 C714.834585 735.810119 714.664602 722.630310 716.089163 709.540466 C717.499258 696.584045 718.207388 683.470642 721.339956 670.561767 C724.266287 658.502502 724.228872 645.738586 725.720632 633.311828 C726.779714 624.489441 726.835317 615.528808 729.498403 606.902404 C730.155081 604.775268 729.669363 602.289795 729.676687 599.968994 C729.690420 595.636352 730.134756 591.240722 729.546560 586.989441 C729.011343 583.121399 731.658621 579.526733 729.751150 575.595398 C727.994924 571.976013 732.295706 568.068786 729.680593 564.288391 C734.721243 558.508239 729.167532 552.765869 729.576956 546.940735 C730.675955 531.304138 732.056082 515.833435 735.239920 500.349853 C737.514212 489.289489 739.614920 478.080688 741.437429 466.891418 C742.222463 462.071472 739.875357 456.827819 739.772268 451.759948 C739.501150 438.434143 738.355276 424.924804 740.078482 411.820007 C741.596487 400.276336 740.625784 388.405914 745.013174 376.993072 C747.244680 371.188141 745.687612 363.885925 745.655996 357.261444 C745.608267 347.280304 748.220877 337.651855 749.301260 327.880767 C750.286001 318.974182 751.935049 310.289459 753.767385 301.601959 C754.587576 297.713318 756.043814 293.879181 757.749746 290.275177 C760.494497 284.476867 762.717581 284.414367 766.450247 289.642120 C766.980398 290.384643 767.459768 291.254181 767.652700 292.132965 C770.058706 303.091491 773.450735 313.821807 776.192434 324.678619 C779.109732 336.230743 781.787893 348.014282 783.106802 359.554168 C784.764761 374.060791 789.481619 389.087005 783.620108 403.800903 C781.783865 408.410461 787.978811 412.584289 783.909170 417.071228 C788.853628 437.657959 787.712820 458.622802 787.608633 479.499328 C787.560781 489.086181 786.413381 498.666748 786.345388 508.254333 C786.241506 522.911926 784.541921 537.351440 781.680593 551.689270 C785.650686 557.136108 780.420339 562.429260 781.446218 568.072387 C782.502004 573.879577 781.880545 580.036682 781.621694 586.024597 C781.385366 591.489441 779.953298 596.983581 780.345388 602.370422 C780.697500 607.207519 780.393423 611.863037 780.286550 616.550842 C780.117849 623.945434 778.971243 631.394043 779.550466 638.886718 C780.139578 646.506714 779.610586 654.208557 779.698477 661.873108 C779.805532 671.208740 778.298879 680.221374 775.867788 689.262573 C774.220571 695.388427 774.532705 702.017456 773.638296 708.374939 C772.193472 718.645263 768.598196 728.789917 768.182669 738.911377 C767.754141 749.348632 764.792593 759.133484 763.224661 769.157898 C761.047048 783.080566 760.546011 797.372436 755.889212 810.980285 C753.964041 816.605896 754.358999 823.022705 753.678091 829.077331 C752.353323 840.857544 751.105337 852.647400 749.658132 864.412658 C747.749868 879.926452 746.081594 895.486328 743.548086 910.901123 C741.671987 922.316162 741.324453 933.972290 739.238272 945.178344 C736.650869 959.076294 736.612905 973.413696 731.892874 987.014282 C729.945303 992.625976 730.264944 999.045288 729.696890 1005.110839 C728.313406 1019.884887 727.185598 1034.684936 725.632681 1049.440673 C724.059683 1064.386230 721.468496 1079.250732 720.506155 1094.226684 C719.715628 1106.529907 718.952749 1118.734985 715.828176 1130.695068 C719.696829 1137.815185 714.396170 1144.714111 715.346731 1152.017212 C716.238638 1158.870483 715.446585 1166.428466 713.383535 1173.049560 C711.142752 1180.241211 713.179251 1187.488769 711.444692 1194.249878 C709.117117 1203.322387 711.335317 1212.800781 707.857717 1221.718383 C706.729544 1224.611328 707.864736 1228.327148 707.644522 1231.645385 C707.086599 1240.051025 706.347280 1248.444336 705.680593 1257.842651 M695.680593 1448.842651 C695.680593 1449.842651 695.680593 1450.842651 694.680593 1451.842651 C694.347280 1454.940796 693.936941 1458.033935 693.731924 1461.140625 C693.677114 1461.971191 694.249624 1462.843139 694.534231 1463.696167 C694.916372 1462.657592 695.572683 1461.633422 695.628042 1460.577636 C695.780264 1457.673095 695.680593 1454.755249 696.680593 1451.842651 C698.034475 1450.087524 698.727041 1448.497680 695.680593 1446.842651 C695.498464 1445.993896 695.316275 1445.145019 695.134146 1444.296264 C694.698416 1444.429565 694.262747 1444.562866 693.827078 1444.696167 C694.444937 1445.744995 695.062796 1446.793823 695.680593 1448.842651 M729.680593 964.842651 C729.680593 962.509033 729.159963 960.029541 729.766043 957.865722 C733.391043 944.922851 732.912405 931.407348 735.540090 918.311035 C736.990957 911.080078 736.769338 903.530578 737.733328 896.181274 C739.550894 882.323364 741.748342 868.515747 743.651235 854.668396 C744.567190 848.002746 745.026480 841.273986 745.955740 834.610534 C747.048208 826.776611 748.528921 818.996887 749.622854 811.163086 C749.988027 808.548156 749.244802 805.752685 749.754873 803.188232 C752.162954 791.081787 754.923879 779.071045 755.817007 766.679931 C756.241079 760.795715 758.279653 755.044494 759.300650 749.183166 C761.524649 736.415649 763.686148 723.634521 765.629324 710.821960 C766.591421 704.478149 765.805776 697.617065 767.920523 691.750427 C773.051016 677.517517 772.422109 662.550171 773.174734 648.136169 C774.913931 614.828186 772.939749 581.359680 775.681204 548.020507 C776.343557 539.965393 775.859426 531.580383 778.041067 523.959350 C779.828482 517.715637 779.056082 511.750244 779.688162 505.690857 C780.320181 499.631897 781.488516 493.584045 781.547537 487.522766 C781.606985 481.422973 779.485708 475.150207 780.353323 469.252380 C781.233755 463.267212 780.548086 457.856750 780.009573 451.990173 C778.421560 434.689392 778.209890 417.253418 777.732534 399.862793 C777.449148 389.540252 778.320730 379.152496 777.501577 368.887542 C776.673086 358.505432 774.520010 348.217620 772.722341 337.927765 C771.209280 329.266967 769.439260 320.648864 767.647451 312.040039 C766.953115 308.703827 765.886282 305.445160 764.989126 302.151184 C763.219595 305.211364 761.362844 308.226471 759.741629 311.363311 C759.333914 312.152252 759.831655 313.358520 759.656484 314.326507 C758.367849 321.446746 756.937368 328.541992 755.707815 335.672027 C754.897695 340.369690 754.049917 345.092590 753.738027 349.838318 C752.902883 362.547302 752.345754 375.274597 751.685049 387.994995 C751.650564 388.659668 751.821279 389.364074 751.659719 389.988769 C748.746694 401.253021 747.646170 412.718322 747.670828 424.326843 C747.708303 441.988281 747.899343 459.653991 747.568411 477.309326 C747.443411 483.982177 747.062002 490.960754 745.025808 497.224060 C740.466665 511.248596 739.270132 525.803344 737.961233 540.175354 C735.932302 562.453491 739.544668 584.975341 735.815603 607.324096 C734.327688 616.241516 734.440603 625.418762 733.645498 634.461853 C733.170156 639.867553 732.938772 645.401123 731.547659 650.596008 C729.222280 659.280029 727.638845 667.978881 727.678457 676.966613 C727.691702 679.965698 728.354849 683.156738 727.565176 685.931152 C723.949514 698.634033 724.983145 711.743530 723.682546 724.638244 C723.004690 731.358947 723.874136 738.719970 721.383230 744.679199 C714.913870 760.156311 716.708853 776.919983 712.182485 792.789367 C707.855642 807.959106 707.356191 824.281311 705.803701 840.158447 C704.889212 849.510559 705.918936 858.917785 703.895315 868.355590 C701.627310 878.932983 700.280325 889.836609 699.861013 900.649841 C699.300955 915.094970 694.180776 928.652343 693.293020 943.120605 C692.352346 958.450561 687.984793 973.540405 685.791433 988.832275 C683.921926 1001.865844 682.417776 1015.011230 681.843740 1028.154785 C681.237234 1042.040649 679.513967 1055.734253 677.886526 1069.502563 C676.277883 1083.111084 676.229849 1096.913574 675.728079 1110.639404 C675.460440 1117.960815 675.680593 1125.300048 675.680593 1132.631225 C675.680593 1139.962402 675.420462 1147.305542 675.753408 1154.621582 C676.090322 1162.024902 676.724233 1169.442505 677.765005 1176.777710 C678.734854 1183.612671 676.468008 1190.564453 677.913076 1197.074829 C680.004812 1206.498413 679.497061 1215.867553 679.678884 1225.289550 C679.691763 1225.955810 679.551870 1226.652588 679.699514 1227.284668 C682.876882 1240.886352 681.975759 1254.876831 683.647573 1268.623657 C684.502798 1275.655761 683.888479 1283.093383 686.015859 1289.676391 C687.918142 1295.563232 686.231191 1301.474731 687.958975 1306.854492 C690.331167 1314.241211 690.014578 1321.889892 691.642446 1329.295776 C692.523611 1333.304443 692.974600 1337.406372 693.714346 1341.448852 C693.859426 1342.241211 694.440298 1342.953735 694.820059 1343.703125 C695.106924 1342.822265 695.598562 1341.952880 695.649099 1341.058593 C696.199453 1331.329101 695.978750 1321.661010 697.279348 1311.844482 C699.424368 1295.654541 698.982412 1279.124878 699.690054 1262.740844 C700.311392 1248.352661 701.015127 1233.968017 701.676687 1219.581665 C701.707327 1218.916504 701.531118 1218.207519 701.702505 1217.588501 C705.374258 1204.331665 704.602712 1190.467285 707.411123 1177.023803 C709.244314 1168.248657 708.308523 1158.974365 709.234487 1149.871338 C710.734121 1135.128784 711.549917 1120.309936 713.565237 1105.571167 C715.438894 1091.868164 716.433706 1078.040893 717.658071 1064.254394 C719.088003 1048.153442 720.351614 1032.037597 721.670034 1015.926880 C721.751333 1014.933715 721.346670 1013.770507 721.732962 1012.953369 C725.093801 1005.844360 724.042654 997.994995 725.536672 990.563476 C727.169668 982.440796 727.680593 974.092529 729.680593 964.842651 M729.680593 2298.842651 C728.977041 2292.139038 729.339529 2285.098510 727.347647 2278.802368 C723.227651 2265.779174 721.448721 2252.445678 719.625601 2239.041870 C718.822500 2233.137085 717.329153 2227.329467 716.312307 2221.449585 C714.696585 2212.107788 713.059072 2202.765014 711.734243 2193.379516 C710.791372 2186.700317 711.490103 2179.575317 709.433584 2173.313354 C705.605276 2161.657348 706.250051 2149.492065 703.806143 2137.721801 C702.441213 2131.148559 702.711233 2124.250854 701.606069 2117.605590 C699.179678 2103.015991 695.943716 2088.553100 693.801077 2073.926880 C691.893911 2060.907348 691.255361 2047.707153 689.613821 2034.642212 C687.913748 2021.111206 685.371878 2007.683715 683.764822 1994.143676 C682.056753 1979.752319 681.034658 1965.280151 679.630972 1950.851196 C679.543142 1949.949340 678.741018 1949.116821 678.271231 1948.252075 C677.407705 1949.226684 675.750845 1950.274536 675.832937 1951.161499 C676.057608 1953.590942 677.463430 1955.926391 677.603933 1958.345337 C678.265066 1969.726928 677.638418 1981.062622 679.291311 1992.540649 C681.029898 2004.613647 680.306448 2017.172485 679.501272 2029.443237 C678.725271 2041.268921 681.345816 2052.876342 680.027639 2064.807006 C678.975149 2074.332885 680.209036 2084.343383 681.904287 2093.876342 C683.639883 2103.636108 685.812857 2113.259887 685.695242 2123.234741 C685.679983 2124.527954 685.758291 2125.840942 685.972952 2127.114624 C687.178396 2134.266967 688.406179 2141.415893 689.688528 2148.554809 C691.469107 2158.467895 693.267446 2168.378540 695.126577 2178.277221 C697.272390 2189.702270 699.480764 2201.115356 701.683889 2212.529663 C703.945242 2224.246215 706.215078 2235.961547 708.515493 2247.670288 C710.208608 2256.288208 711.900381 2264.907104 713.696768 2273.503784 C715.423269 2281.765991 717.167593 2290.027954 719.110464 2298.241089 C722.551443 2312.786743 726.170767 2327.290405 729.673574 2341.821655 C732.375845 2353.032104 734.716848 2364.339233 737.765737 2375.453247 C740.705801 2386.170776 744.567617 2396.635131 747.538015 2407.345337 C748.362356 2410.317505 747.084402 2413.909546 750.830862 2415.692260 C751.114126 2412.812133 751.545584 2409.934936 751.607229 2407.050171 C751.631765 2405.901977 750.680532 2404.767700 750.440786 2403.573608 C748.154592 2392.188354 745.707205 2380.828735 743.764334 2369.383911 C742.637136 2362.743774 742.900869 2355.849731 741.571707 2349.265258 C738.234365 2332.732055 734.347219 2316.309448 729.680593 2298.842651 M780.680532 2511.842651 C780.947195 2511.442749 781.213858 2511.042602 781.480581 2510.642944 C780.880606 2510.709594 780.280630 2510.776245 780.680532 2511.842651 M677.680593 1936.842651 C677.280630 1936.575927 676.880606 1936.309204 676.480581 1936.042602 C676.547232 1936.642578 676.613943 1937.242675 677.680593 1936.842651 M691.680593 1492.842651 C692.080557 1493.109375 692.480581 1493.375976 692.880606 1493.642700 C692.813955 1493.042724 692.747244 1492.442627 691.680593 1492.842651 z"/><path class="selected"  fill="#000000" opacity="1.000000" stroke="none" 
 	d="
M609.680593 606.342651 C613.032156 608.860901 616.408682 611.851928 619.729299 614.903869 C624.525686 619.311950 626.125540 619.066589 629.238333 613.260254 C629.809072 612.195617 630.171011 611.018921 630.629263 609.893982 C630.861685 610.092224 631.266043 610.266113 631.298025 610.492614 C631.475637 611.750061 631.916189 613.110351 631.620840 614.271057 C630.178762 619.938659 621.224783 622.234680 616.735647 617.656677 C613.780874 614.643371 611.991751 610.487121 609.680593 606.342651 z"/><path class="selected"  fill="#000000" opacity="1.000000" stroke="none" 
 	d="
M523.680593 1487.342651 C521.154592 1487.650024 518.118032 1488.272827 516.216726 1487.082519 C512.994070 1485.064575 510.487966 1481.902343 507.680593 1479.221313 C511.571890 1478.553222 513.205923 1482.432129 516.273062 1483.501709 C518.820730 1484.390380 521.217153 1485.712524 523.680593 1487.342651 z"/><path class="selected"  fill="#000000" opacity="1.000000" stroke="none" 
 	d="
M599.180593 917.342651 C596.391470 918.886901 594.102407 919.931152 591.813284 920.975341 C591.769094 920.664672 591.586782 920.151123 591.701040 920.073364 C593.819876 918.632141 595.947622 917.197754 598.158132 915.906738 C598.400747 915.765136 599.160635 916.509338 599.180593 917.342651 z"/><path class="selected"  fill="#000000" opacity="1.000000" stroke="none" 
 	d="
M9.680586 3333.842651 C10.674818 3334.515014 10.872427 3335.679077 10.630033 3335.779663 C9.156488 3336.389038 7.582925 3336.756469 6.042786 3337.204956 C6.922054 3336.084106 7.801315 3334.963501 9.680586 3333.842651 z"/><path class="selected"  fill="#000000" opacity="1.000000" stroke="none" 
 	d="
M1061.680593 3271.842651 C1062.002249 3273.164428 1061.324026 3274.486206 1060.645925 3275.807983 C1059.749319 3274.911499 1058.852712 3274.014770 1057.956106 3273.118286 C1058.864309 3272.693237 1059.772512 3272.267944 1061.680593 3271.842651 z"/><path class="selected"  fill="#000000" opacity="1.000000" stroke="none" 
 	d="
M88.180593 1894.342651 C89.013922 1895.274536 89.663191 1896.734253 89.539816 1898.125732 C89.482931 1898.767089 87.914564 1899.274536 87.031546 1899.842651 C87.247892 1898.803955 87.508100 1897.771728 87.663923 1896.724121 C87.755331 1896.109741 87.680593 1895.470581 88.180593 1894.342651 z"/><path class="selected"  fill="#000000" opacity="1.000000" stroke="none" 
 	d="
M68.180601 2689.342651 C67.045927 2687.477417 66.411238 2686.111938 65.776525 2684.746704 C66.244520 2684.611938 66.997915 2684.225219 67.136282 2684.381714 C68.506491 2685.933227 71.381224 2687.136352 68.180601 2689.342651 z"/><path class="selected"  fill="#000000" opacity="1.000000" stroke="none" 
 	d="
M20.180597 3362.342651 C21.528229 3362.023559 22.375858 3362.204712 23.223526 3362.385620 C22.223562 3363.385620 21.223562 3364.385620 20.223528 3365.385620 C20.042526 3364.537964 19.861563 3363.690307 20.180597 3362.342651 z"/><path class="selected"  fill="#000000" opacity="1.000000" stroke="none" 
 	d="
M387.180593 1107.342651 C385.738851 1107.842651 384.764822 1107.991211 383.865591 1107.795654 C383.145803 1107.639160 382.516897 1107.064575 381.847647 1106.675659 C382.360464 1106.397949 382.910269 1105.835083 383.379202 1105.895752 C384.829550 1106.083740 386.249105 1106.509277 387.180593 1107.342651 z"/><path class="selected"  fill="#000000" opacity="1.000000" stroke="none" 
 	d="
M71.180654 3313.342651 C69.680662 3313.109741 68.637655 3312.423462 67.731443 3311.588745 C67.608785 3311.475952 68.172735 3310.617797 68.418791 3310.104614 C69.506071 3311.017212 70.593351 3311.929809 71.180654 3313.342651 z"/><path class="selected"  fill="#000000" opacity="1.000000" stroke="none" 
 	d="
M0.180578 3356.342651 C0.955150 3356.901489 1.241376 3357.957885 1.448863 3359.029663 C1.455189 3359.062378 0.640909 3359.253784 0.209186 3359.371215 C0.033002 3358.528442 -0.143197 3357.685424 0.180578 3356.342651 z"/><path class="selected"  fill="#000000" opacity="1.000000" stroke="none" 
 	d="
M19.180570 3308.342651 C19.504381 3309.685424 19.328182 3310.528442 19.151995 3311.371215 C18.720272 3311.253784 17.905928 3311.062378 17.912231 3311.029663 C18.119737 3309.957885 18.405962 3308.901489 19.180570 3308.342651 z"/><path class="selected"  fill="#000000" opacity="1.000000" stroke="none" 
 	d="
M1053.180593 2957.342651 C1052.405935 2956.783813 1052.119802 2955.727417 1051.912283 2954.655639 C1051.905813 2954.623169 1052.720266 2954.431518 1053.152029 2954.314087 C1053.328176 2955.156860 1053.504324 2955.999878 1053.180593 2957.342651 z"/><path class="selected"  fill="#000000" opacity="1.000000" stroke="none" 
 	d="
M718.180593 2166.342651 C718.747244 2166.442749 718.813955 2167.042602 718.880606 2167.642700 C718.480642 2167.376098 718.080618 2167.109253 718.180593 2166.342651 z"/><path class="selected"  fill="#000000" opacity="1.000000" stroke="none" 
 	d="
M754.180593 2035.342651 C754.280630 2034.776001 754.880606 2034.709350 755.480581 2034.642700 C755.213919 2035.042602 754.947256 2035.442749 754.180593 2035.342651 z"/><path class="selected"  fill="#000000" opacity="1.000000" stroke="none" 
 	d="
M21.180624 3233.342651 C20.613924 3233.242553 20.547256 3232.642700 20.480623 3232.042602 C20.880657 3232.309204 21.280657 3232.575805 21.180624 3233.342651 z"/><path class="selected"  fill="#000000" opacity="1.000000" stroke="none" 
 	d="
M27.180620 1848.342651 C27.080603 1848.909423 26.480600 1848.976074 25.880621 1849.042602 C26.147306 1848.642700 26.413973 1848.242675 27.180620 1848.342651 z"/><path class="selected"  fill="#000000" opacity="1.000000" stroke="none" 
 	d="
M81.180616 3288.342651 C81.080603 3288.909301 80.480604 3288.975952 79.880613 3289.042602 C80.147291 3288.642700 80.413954 3288.242553 81.180616 3288.342651 z"/><path class="selected"  fill="#000000" opacity="1.000000" stroke="none" 
 	d="
M62.180548 3308.342651 C62.747228 3308.442749 62.813894 3309.042602 62.880545 3309.642700 C62.480528 3309.376098 62.080526 3309.109497 62.180548 3308.342651 z"/><path class="selected"  fill="#000000" opacity="1.000000" stroke="none" 
 	d="
M523.680593 1488.342651 C524.298452 1488.224731 524.916311 1488.606933 525.534170 1488.989135 C524.916311 1488.940307 524.298452 1488.891479 523.680593 1488.342651 z"/><path class="selected"  fill="#000000" opacity="1.000000" stroke="none" 
 	d="
M8.180622 3354.342651 C8.747272 3354.442749 8.813940 3355.042602 8.880623 3355.642700 C8.480636 3355.375854 8.080637 3355.109253 8.180622 3354.342651 z"/><path class="selected"  fill="#000000" opacity="1.000000" stroke="none" 
 	d="
M609.680593 605.342651 C609.062734 605.460510 608.444876 605.078369 607.827017 604.696228 C608.444876 604.744995 609.062734 604.793823 609.680593 605.342651 z"/><path class="selected"  fill="#000000" opacity="1.000000" stroke="none" 
 	d="
M7.180597 3379.342651 C6.613922 3379.242553 6.547255 3378.642700 6.480597 3378.042602 C6.880607 3378.309204 7.280606 3378.576049 7.180597 3379.342651 z"/><path class="selected"  fill="#000000" opacity="1.000000" stroke="none" 
 	d="
M2.180625 3383.342651 C2.280601 3382.776001 2.880601 3382.709350 3.480625 3382.642700 C3.213982 3383.042602 2.947315 3383.442749 2.180625 3383.342651 z"/><path class="selected"  fill="#000000" opacity="1.000000" stroke="none" 
 	d="
M29.180563 3387.342651 C28.613920 3387.242553 28.547254 3386.642700 28.480558 3386.042602 C28.880533 3386.309448 29.280531 3386.576049 29.180563 3387.342651 z"/><path class="selected"  fill="#000000" opacity="1.000000" stroke="none" 
 	d="
M690.180593 1096.342651 C693.362478 1101.374389 687.861013 1101.597046 685.465750 1103.819946 C685.319937 1103.955322 684.870596 1103.763916 684.562490 1103.724609 C684.662771 1103.036377 684.520681 1102.134277 684.906118 1101.697876 C686.406790 1099.999267 688.074758 1098.448364 690.180593 1096.342651 z"/></svg>