<?xml version="1.0" encoding="utf-8"?><!DOCTYPE svg PUBLIC "-//W3C//DTD SVG 1.1//EN" "http://www.w3.org/Graphics/SVG/1.1/DTD/svg11.dtd"><svg version="1.1" id="Contours" xmlns="http://www.w3.org/2000/svg" xmlns:xlink="http://www.w3.org/1999/xlink" x="0px" y="0px" width="1232.031006px" height="1232.031006px" viewBox="0.000000 0.000000 1232.031006 1657.184692" enable-background="new 0 0 1232.031006 1232.031006" xml:space="preserve" stroke="black" fill="none" stroke-linecap='round' stroke-linejoin='round'><path class="selected"  fill="#000000" opacity="1.000000" stroke="none" 
 	d="
M705.694843 528.184647 C697.346515 525.003006 689.007160 521.797318 680.638202 518.670853 C679.619892 518.290421 678.445331 518.233170 677.338031 518.200211 C661.904010 517.740189 646.634113 518.560501 631.458393 522.012039 C624.129047 523.678971 616.378132 523.458084 608.828449 524.197891 C595.710102 525.483475 582.596943 526.825150 569.486774 528.192215 C557.036029 529.490494 544.619526 531.314713 532.137348 532.062821 C517.807575 532.921585 503.402118 533.462235 489.067310 532.991409 C477.588764 532.614334 466.162464 530.552994 454.720997 529.172440 C446.961231 528.236222 439.142658 527.561051 431.483448 526.080643 C423.555225 524.548294 415.659382 522.580460 407.980030 520.091568 C396.547748 516.386307 385.035328 512.690689 374.082477 507.811417 C363.367664 503.038132 353.113239 497.116715 343.036701 491.066422 C336.536548 487.163529 330.437824 482.450546 324.671192 477.503769 C317.668445 471.496567 310.757038 465.262436 304.609455 458.406174 C294.658558 447.308060 283.893360 436.531143 278.476154 422.286667 C273.322437 408.735031 269.253650 394.771225 264.692432 380.993729 C260.180286 367.364365 255.930286 353.639847 251.060840 340.139054 C243.471103 319.096085 229.674396 301.737473 216.857456 283.806168 C203.784320 265.516434 189.533710 248.188294 172.897480 233.092697 C156.687153 218.383560 139.427845 204.837952 119.771778 194.886429 C108.172779 189.014069 95.988529 184.759766 82.720333 184.067368 C76.931751 183.765290 71.073124 180.894211 65.489658 181.485947 C57.033191 182.382172 48.340397 181.538605 40.058872 185.050232 C29.552021 189.505493 19.212059 194.200012 13.274412 204.367142 C9.268411 211.226685 6.895003 219.031067 3.636988 226.344055 C3.057830 227.644028 1.722048 228.606919 0.735655 229.725464 C0.513118 227.920792 -0.378528 225.868363 0.182291 224.353745 C2.800313 217.283219 5.766095 210.338608 8.707323 203.391236 C13.089656 193.039932 16.867180 182.354004 22.167995 172.490830 C28.217825 161.234009 36.432964 151.124558 42.289310 139.784302 C49.209438 126.384155 58.574630 114.846916 68.166156 103.622956 C77.355243 92.869927 88.234874 83.532006 98.632007 73.851937 C104.896892 68.019127 111.460506 62.462502 118.243427 57.241032 C128.924366 49.018902 140.069568 41.397553 150.706302 33.120999 C160.234913 25.706684 170.866031 20.787777 182.461582 18.032994 C189.824512 16.283758 197.369068 15.165964 204.891651 14.257645 C213.076267 13.269386 221.328357 12.353790 229.553608 12.330781 C237.108509 12.309648 244.662769 13.569357 252.225025 14.167218 C257.579578 14.590540 263.016193 14.422592 268.294117 15.274655 C279.001392 17.003231 289.635212 19.197289 300.281818 21.288290 C309.978199 23.192661 319.610248 25.454689 329.344959 27.126299 C342.722431 29.423418 355.921466 26.365631 369.176227 25.185728 C376.732532 24.513085 384.356861 24.272640 391.830249 23.082070 C402.050617 21.453867 412.240711 19.447977 422.286579 16.967367 C431.423755 14.711142 439.500507 10.253261 447.179432 4.530424 C454.840534 -1.179171 463.762043 -1.133249 472.786976 2.668614 C484.353046 7.540962 493.999286 15.144026 503.209369 23.306288 C518.398212 36.767086 533.237018 50.622051 548.280597 64.247696 C557.589313 72.679039 566.704303 81.362793 576.446979 89.266678 C588.498066 99.043251 601.000019 108.064087 615.496784 114.389229 C631.609333 121.419396 646.041217 131.737137 658.537677 144.013825 C673.671894 158.881882 682.539753 177.723602 688.753803 197.906143 C693.341510 212.806473 698.210773 227.632492 703.432209 242.321823 C708.538166 256.686142 713.381549 271.249283 719.925861 284.968735 C727.253070 300.329361 736.352069 314.845627 744.727253 329.702713 C745.083027 330.333756 746.208027 331.230972 746.470173 331.086838 C747.336506 330.610520 748.444477 329.808090 748.614887 328.960953 C749.457233 324.772659 750.250385 320.551071 750.658039 316.302567 C752.912006 292.812149 760.711261 271.333267 774.350666 252.124802 C784.407917 237.961075 796.160541 225.498505 812.704609 218.696427 C822.606769 214.625153 832.748249 211.957215 843.574543 210.993103 C860.185749 209.513825 875.108600 214.162247 889.597248 221.228287 C898.049640 225.350449 905.813373 230.531159 912.431598 237.365784 C919.850605 245.027161 927.977192 252.056351 934.912128 260.120621 C944.706012 271.509567 955.388630 281.849442 968.032978 289.831314 C979.955646 297.357651 991.451069 306.240189 1006.731525 306.245072 C1015.759784 306.247940 1024.887470 307.830612 1033.789692 306.925034 C1043.846698 305.901993 1053.799213 303.254593 1063.617939 300.640244 C1075.217426 297.551804 1086.546283 295.238144 1098.547138 299.080033 C1112.444843 303.529129 1122.645649 312.254502 1128.499530 325.184250 C1133.759540 336.802445 1137.144306 349.255875 1141.782856 361.174881 C1144.236347 367.479050 1147.670917 373.395920 1150.535785 379.546738 C1157.627704 394.772721 1164.466816 410.120041 1171.808124 425.223923 C1173.919941 429.568680 1177.022968 433.594193 1180.318622 437.169602 C1189.062030 446.655319 1198.238178 455.740524 1207.089862 465.128769 C1214.031147 472.490921 1221.067768 479.804337 1227.453876 487.635361 C1232.276996 493.549912 1232.649311 501.224472 1231.460834 508.295944 C1230.440815 514.365006 1224.042987 518.738236 1216.424701 517.682327 C1204.927753 516.088822 1196.579120 508.307846 1186.362323 504.405167 C1177.004413 500.830521 1167.700946 496.904465 1158.050312 494.358475 C1146.475849 491.304947 1135.373310 487.318711 1124.395649 482.596573 C1116.342792 479.132675 1107.750141 476.878403 1099.317157 474.355179 C1088.180683 471.022995 1077.004413 467.807785 1065.774189 464.808457 C1049.549823 460.475296 1033.071308 456.987534 1017.068744 451.967728 C1006.699237 448.714951 996.932636 443.486588 987.005451 438.905899 C983.492389 437.284897 980.402424 434.754135 976.906269 433.084702 C975.877948 432.593643 973.091755 433.292008 972.849567 434.021988 C969.454242 444.256272 968.675373 454.753128 970.411396 465.424607 C970.645649 466.864365 970.681903 468.348404 970.683429 469.812058 C970.701191 486.977890 970.628620 504.144089 970.716327 521.309464 C970.783649 534.486466 969.274067 547.403092 964.674579 559.814896 C959.428791 573.970780 955.263202 588.708573 948.370136 602.024613 C940.441486 617.341019 931.617023 632.274552 919.523395 645.199356 C902.864704 663.003006 883.004840 676.279251 862.715961 689.172684 C845.838947 699.897659 828.841388 710.433609 811.999408 721.212845 C799.718647 729.072830 789.078937 738.989273 782.046466 751.682144 C775.710712 763.117508 771.547199 775.571610 774.538654 789.309220 C775.257038 792.608658 773.729572 796.335159 773.766376 799.859757 C773.818866 804.891007 774.560932 809.913651 774.650837 814.946305 C774.808551 823.776383 775.177692 832.644058 774.582050 841.436600 C773.680439 854.746231 772.136310 868.016983 770.665119 881.282120 C769.131977 895.105850 767.180683 908.884537 765.743915 922.717362 C764.193805 937.641861 763.084552 952.611588 761.674274 967.551285 C760.784259 976.980301 759.601215 986.381790 758.718647 995.811417 C757.619587 1007.554032 756.689289 1019.312454 755.696369 1031.064896 C754.689411 1042.982865 753.463825 1054.888016 752.752826 1066.823807 C751.846882 1082.032791 750.986713 1097.262161 750.803363 1112.491165 C750.630634 1126.846268 750.382404 1141.319290 751.937030 1155.547074 C753.985798 1174.297806 754.781025 1193.017410 754.745868 1211.828201 C754.743366 1213.166947 755.381061 1214.542801 755.899738 1215.829300 C756.111591 1216.354691 756.799579 1216.687821 757.270954 1217.108475 C757.412250 1216.500443 757.624714 1215.899124 757.683918 1215.283158 C758.367633 1208.170853 759.244098 1201.068314 759.642231 1193.939285 C760.186237 1184.199051 759.714191 1174.361527 760.857929 1164.705521 C762.303119 1152.504471 764.779194 1140.414017 767.104267 1128.332352 C769.085346 1118.038162 771.201007 1107.751541 773.811908 1097.604569 C775.143818 1092.428055 777.662922 1087.552201 779.701374 1082.563309 C784.069355 1071.873245 788.292743 1061.119217 792.909137 1050.536820 C798.554218 1037.596268 807.088703 1026.504349 815.771747 1015.481705 C821.429889 1008.298844 825.948200 1000.195755 831.802204 993.194779 C840.762897 982.478470 848.645282 970.825333 860.464618 962.538407 C866.380390 958.390701 870.630878 951.886368 875.711933 946.521256 C878.109211 943.989945 880.793659 941.728836 883.167621 939.177445 C894.567157 926.925614 905.963520 914.682450 914.733783 900.271866 C919.210224 892.916580 923.995624 885.742996 928.815265 878.604569 C935.116047 869.272415 933.118427 862.013931 923.283649 856.108170 C910.608783 848.496842 898.830036 852.149002 887.355671 858.449539 C886.105854 859.135758 885.768329 864.126724 886.879596 866.025162 C892.539325 875.693863 894.182575 885.791336 892.880939 896.839920 C892.373066 901.151383 892.457416 905.157303 887.994098 907.144730 C882.454731 909.611222 876.809711 912.296707 870.707660 908.682755 C865.641132 905.682205 859.466144 905.727616 854.584247 901.445084 C850.927387 898.237076 846.455768 902.918045 842.316730 904.003922 C836.622150 905.497818 831.183246 908.361099 824.950214 907.218704 C820.775837 906.453629 818.346698 903.406693 819.947773 899.587662 C821.377521 896.177384 823.417682 892.894303 825.760517 890.021805 C831.065998 883.516739 837.278888 878.293472 845.312214 874.963211 C849.864093 873.076248 854.191303 869.539078 857.369403 865.707901 C862.066425 860.045792 868.873371 859.486588 874.745441 856.693558 C875.068195 856.540055 875.766376 856.852921 876.125446 857.148392 C880.002948 860.338822 882.777607 859.207169 886.561237 856.078812 C900.193805 844.806900 913.085285 844.425614 927.570636 853.748978 C930.324604 855.521439 932.559406 858.526505 934.235126 861.424637 C935.815693 864.158035 936.914203 863.619766 938.470050 861.885391 C940.524860 859.594803 943.124286 857.520828 944.383136 854.835159 C949.862384 843.145523 959.751117 835.080155 967.916278 825.631363 C971.952533 820.960404 977.061969 817.234818 981.468769 812.862686 C993.633075 800.793778 1005.032001 788.299027 1010.950763 771.584366 C1017.390644 753.397843 1021.620319 734.783035 1024.830341 715.810135 C1026.513324 705.862442 1029.204731 696.026444 1032.280903 686.408829 C1033.220966 683.469864 1037.095478 681.547806 1039.378681 678.943009 C1043.454853 674.292557 1048.494648 673.846329 1053.742450 675.842484 C1059.296528 677.955155 1059.851825 683.770340 1061.568988 688.440933 C1062.589496 691.216751 1062.605365 694.449234 1062.634174 697.480545 C1062.671772 701.435135 1064.602558 701.783219 1067.672748 700.712784 C1070.149677 699.849198 1072.607563 698.906265 1075.131122 698.204910 C1087.531025 694.759110 1097.771015 701.388565 1105.132709 710.766251 C1114.027240 722.096634 1112.373798 734.369156 1110.386493 746.652359 C1109.688984 750.962723 1105.262470 753.777420 1099.987690 754.581131 C1094.585102 755.404312 1089.550190 755.785111 1084.789814 752.757645 C1080.303608 749.904434 1076.569355 750.084366 1072.783100 753.620804 C1070.713764 755.553604 1068.501606 757.416764 1066.812763 759.657242 C1062.547504 765.315628 1052.725116 764.390824 1048.603901 757.058609 C1043.772968 748.463822 1045.857074 740.534073 1049.092060 732.161148 C1052.981220 722.095230 1056.995014 711.952408 1059.410053 701.486344 C1060.999897 694.596146 1058.765278 687.280472 1054.637592 681.162796 C1052.215595 677.573136 1042.569843 678.282364 1038.838886 682.788956 C1036.139789 686.049332 1033.883930 690.142533 1032.841449 694.224686 C1029.132953 708.747330 1025.448139 723.321854 1022.843647 738.069107 C1019.679096 755.987381 1014.599933 773.176529 1005.522785 788.899124 C1002.026081 794.955887 996.569660 799.875931 992.057209 805.356034 C991.190815 806.408280 990.563312 807.657242 989.825702 808.815506 C991.394672 808.825943 993.090717 809.232437 994.510395 808.777298 C1000.234089 806.941788 1005.779377 804.503494 1011.561481 802.906265 C1024.211933 799.411637 1036.884418 799.460770 1049.242939 804.288407 C1056.305561 807.047318 1059.460590 813.665848 1061.447651 820.001969 C1064.112201 828.498245 1065.238910 837.511490 1066.556537 846.372635 C1066.915912 848.789078 1067.479145 848.928177 1069.631366 849.315567 C1075.577900 850.385758 1082.234028 850.428787 1086.085590 856.226334 C1087.488300 858.337601 1088.115009 861.083023 1088.645649 863.632767 C1090.183735 871.023941 1091.155048 878.548172 1093.004047 885.854325 C1094.385883 891.314408 1094.101581 896.527298 1091.202167 900.990311 C1085.670917 909.504288 1074.629413 907.123734 1069.745380 900.672623 C1066.519306 896.411270 1060.706684 896.456742 1058.305805 901.104141 C1055.138202 907.235794 1049.429706 910.310684 1043.405292 911.961624 C1038.415912 913.328995 1034.298969 909.423050 1031.920185 905.507584 C1030.586444 903.312210 1031.110004 899.370865 1031.972431 896.579300 C1034.197651 889.376175 1036.594257 882.146744 1039.809589 875.347367 C1044.456684 865.520828 1050.228656 856.306534 1060.382465 851.076798 C1063.482441 849.480240 1065.146015 847.277847 1064.655536 843.913590 C1063.167743 833.708695 1061.114277 823.700394 1055.716449 814.618485 C1051.202533 807.023941 1044.118549 804.156998 1036.088276 804.361588 C1027.149921 804.589371 1018.239948 806.132767 1009.335041 807.243363 C1008.071186 807.400894 1006.905841 808.348404 1005.694843 808.930252 C1006.675251 809.828812 1007.556903 810.876724 1008.652240 811.601578 C1015.550617 816.166092 1020.605243 822.146805 1022.269794 830.371903 C1022.945575 833.711563 1022.951069 837.300003 1022.589985 840.703995 C1022.240741 843.995255 1023.600116 846.116471 1025.912250 847.869278 C1035.269550 854.963333 1037.887958 863.848709 1033.752338 874.935684 C1031.432636 881.154312 1029.721698 887.598587 1027.686786 893.925308 C1025.870624 899.572037 1024.175922 900.455582 1018.698139 898.674576 C1017.087665 898.150894 1015.335773 897.778214 1013.961567 896.865494 C1010.019062 894.246659 1006.059833 894.183060 1001.654926 895.600784 C999.129108 896.413712 995.761249 898.328446 995.375019 892.631485 C995.216816 890.298294 992.578571 887.737930 989.023517 890.151627 C984.580036 893.168411 979.518390 893.531143 974.286457 893.235550 C970.961139 893.047623 969.225483 891.459976 969.781940 888.330521 C970.401874 884.844010 971.130268 881.166214 972.807819 878.120438 C976.790424 870.889298 981.028949 863.747879 985.780841 857.004837 C991.442157 848.971390 999.947223 845.170792 1009.343708 843.193131 C1009.662922 843.125931 1010.008625 843.180496 1010.341877 843.185257 C1013.250019 843.226883 1018.493061 843.889176 1018.673420 843.209000 C1019.590656 839.748062 1020.033832 835.697647 1019.054340 832.313370 C1017.789814 827.944290 1015.450031 823.708878 1012.809223 819.953079 C1007.524799 812.437760 999.279865 813.088333 991.941486 814.720780 C982.869037 816.739029 975.630085 822.038101 968.836567 829.018265 C957.840900 840.315994 948.292011 852.519608 939.819477 865.659195 C936.044880 871.513016 933.295795 878.036820 929.429889 883.821243 C921.196552 896.140640 912.520832 908.163956 904.084186 920.348709 C903.410968 921.321060 903.185016 922.602921 902.751178 923.740982 C903.986835 923.801102 905.319049 924.190201 906.440448 923.861038 C910.137958 922.775467 913.749164 921.398880 917.420307 920.217423 C917.990619 920.033890 918.701069 920.285904 919.346820 920.336563 C919.129535 920.983719 919.110553 921.907181 918.660663 922.230362 C916.692463 923.643448 914.759906 925.363907 912.526203 926.108536 C894.289447 932.188004 880.392353 943.926712 868.529438 958.669998 C865.074604 962.963639 860.268207 966.141617 856.351764 970.098648 C850.460651 976.050675 844.307758 981.846451 839.161274 988.410416 C829.478107 1000.760575 820.763385 1013.872269 811.031147 1026.181229 C801.414875 1038.343460 795.379230 1052.204788 789.641681 1066.354569 C786.113117 1075.056839 781.588703 1083.375443 778.395649 1092.186722 C775.810505 1099.320389 774.289569 1106.879349 772.748249 1114.342972 C769.570697 1129.729569 766.303180 1145.116287 763.842243 1160.625076 C762.372394 1169.887772 762.069660 1179.372147 761.758686 1188.774002 C761.199237 1205.684891 760.930133 1222.607498 760.754535 1239.527420 C760.701740 1244.608963 761.575885 1249.695877 761.623005 1254.784012 C761.657123 1258.475784 760.485431 1262.219315 760.792926 1265.860306 C761.873859 1278.662064 763.390705 1291.426468 764.683429 1304.210892 C765.413166 1311.428055 765.846027 1318.679398 766.740192 1325.874710 C767.896076 1335.174759 769.163776 1344.471878 770.779987 1353.700882 C772.511432 1363.587723 774.609272 1373.414139 776.716510 1383.230667 C780.064533 1398.826859 783.494526 1414.406082 786.999408 1429.967850 C790.154743 1443.977982 793.235981 1458.010697 796.754718 1471.931229 C800.558307 1486.978958 804.844562 1501.904373 808.891864 1516.890824 C810.350666 1522.292801 811.510028 1527.785233 813.188739 1533.115921 C816.201801 1542.683914 819.776813 1552.080155 822.625324 1561.693680 C827.514301 1578.193680 831.591877 1594.944901 836.859272 1611.317581 C839.958393 1620.950028 844.755817 1630.030228 848.670124 1639.408646 C850.745624 1644.381546 852.615863 1649.442948 854.448810 1654.511307 C854.723224 1655.270218 854.283771 1656.287064 854.174579 1657.184647 C853.371784 1656.708451 852.175800 1656.420120 851.841694 1655.720291 C850.917194 1653.783646 850.424884 1651.646805 849.632953 1649.639969 C845.676349 1639.613236 841.296100 1629.734696 837.783954 1619.555985 C832.443500 1604.078690 827.426105 1588.477249 822.750629 1572.785843 C812.932087 1539.833206 803.052875 1506.889969 793.946674 1473.737503 C789.353717 1457.015946 786.407428 1439.843094 782.691303 1422.879715 C778.039386 1401.643997 773.058918 1380.473831 768.824115 1359.155594 C766.745075 1348.689774 765.925007 1337.965286 764.721454 1327.336624 C763.275715 1314.569046 761.988544 1301.782913 760.707111 1288.997269 C759.646808 1278.417923 758.694721 1267.827957 757.694782 1257.242630 C756.028095 1239.600540 754.276325 1221.965897 752.737690 1204.312576 C752.141681 1197.473953 752.001850 1190.594315 751.700214 1183.731278 C751.016498 1168.175614 750.391925 1152.617264 749.685749 1137.062576 C749.062641 1123.337479 748.050739 1109.621536 747.797382 1095.890701 C747.609394 1085.705521 747.841266 1075.453201 748.813678 1065.319657 C750.369587 1049.106278 752.731342 1032.971146 754.669696 1016.793045 C755.169941 1012.617935 755.573749 1008.410172 755.656574 1004.210159 C755.950092 989.329056 756.027790 974.459244 759.589374 959.844193 C760.317768 956.855179 759.454548 953.515335 759.736347 950.374100 C760.973529 936.585098 762.161213 922.786392 763.755695 909.036331 C765.128986 897.193253 767.087848 885.419144 768.674457 873.599381 C769.780353 865.361527 771.378742 857.112869 771.558185 848.842972 C771.983417 829.238846 771.929828 809.615250 771.608051 790.007096 C771.410053 777.942826 770.864582 765.837601 769.557453 753.850846 C768.168415 741.113297 765.527118 728.517410 763.759357 715.814102 C762.737751 708.473343 762.955280 700.930191 761.580036 693.674332 C757.903095 674.274063 754.301654 654.819718 749.475299 635.688309 C744.632892 616.492996 739.071186 597.405411 732.463276 578.752884 C727.284565 564.134598 720.251667 550.145096 713.518146 536.128189 C712.060810 533.094376 708.361530 531.137528 705.944843 528.434647 C708.014362 523.236588 704.605365 519.919327 702.306903 516.386185 C699.998005 512.837052 697.250263 509.573380 694.944843 506.184647 C696.014057 507.003861 696.798359 507.862381 697.662189 508.631485 C698.561603 509.432266 699.537922 510.146713 700.480610 510.898880 C700.552021 509.595291 700.917194 508.226395 700.644306 506.999344 C699.427387 501.526474 698.023395 496.095230 696.756305 490.632858 C696.742511 490.573410 697.667560 490.119827 698.133503 490.152054 C705.124836 490.635086 699.969867 496.741013 702.375019 499.368332 C702.795490 499.827622 703.191486 500.309342 703.598835 500.780716 C699.190021 501.068009 702.260883 503.444168 702.763507 504.545609 C707.690815 515.341263 712.677265 526.112992 717.878864 536.778458 C719.445697 539.991043 722.265094 542.638077 723.584125 545.916947 C726.286518 552.634354 728.279926 559.633194 730.713520 566.463394 C734.644367 577.496292 739.337238 588.302689 742.553058 599.535416 C748.199543 619.258866 752.999347 639.225418 758.103351 659.103104 C762.733600 677.135391 766.474689 695.308731 766.764728 714.037430 C766.785419 715.373123 767.804218 716.693253 768.358783 718.020645 C768.804157 716.705277 769.451862 715.421158 769.660663 714.069290 C770.703510 707.316055 770.996174 700.377274 772.729938 693.814774 C776.472736 679.647782 780.142658 665.558548 779.733417 650.723892 C779.515888 642.840347 780.180927 634.908646 779.580463 627.065079 C778.688861 615.418350 776.198810 603.853714 775.873127 592.212601 C775.256672 570.175430 775.760517 548.108353 775.649128 526.054459 C775.620929 520.467911 775.083515 514.879959 774.665790 509.301224 C774.512897 507.259415 774.024616 505.242966 773.695514 503.213944 C772.758258 497.435806 772.368671 491.503372 770.788654 485.906906 C765.658466 467.736344 760.352924 449.605728 754.612629 431.620041 C750.019855 417.229782 745.480549 402.730545 739.455829 388.917221 C734.275287 377.039475 727.062702 366.043686 720.684833 354.693772 C714.604755 343.873703 708.597370 333.008133 702.278339 322.328079 C693.554645 307.583847 684.660724 292.937943 675.662983 278.359024 C669.503132 268.378220 663.542926 258.214951 656.607441 248.784912 C643.668903 231.192673 629.803608 214.281998 616.865009 196.689774 C607.646564 184.155686 598.155170 172.087708 586.153034 161.973465 C571.084919 149.275467 556.498310 135.999603 541.859943 122.800026 C526.982196 109.384552 510.222736 98.601090 492.815265 89.046097 C463.583545 73.000763 433.509205 58.592472 401.295215 49.360394 C384.871082 44.653469 368.315570 40.381005 351.729694 36.274780 C345.448810 34.719799 338.873859 34.392254 332.510425 33.118386 C327.497333 32.114842 322.635120 30.381687 317.650257 29.209063 C299.462757 24.930699 281.789905 18.214806 262.719867 18.127178 C251.254627 18.074497 240.023075 14.594080 228.368213 16.085957 C217.008655 17.540032 205.429081 17.496271 194.164447 19.401287 C185.065036 20.940134 175.546619 23.016163 167.539905 27.320267 C154.339130 34.416512 141.939869 43.128945 129.723713 51.886784 C121.847088 57.533589 115.186489 64.852150 107.466869 70.748482 C97.450489 78.399094 87.363971 85.835755 79.472049 95.858048 C68.058994 110.351982 55.162281 123.502548 45.942787 139.924759 C36.679031 156.425827 25.239626 171.716629 18.055328 189.413696 C17.529899 190.707993 17.912176 192.370774 17.872442 193.862244 C18.912737 193.036881 19.962724 192.223297 20.988332 191.380066 C21.372688 191.064072 21.648220 190.595429 22.061567 190.337998 C30.177269 185.283615 38.790077 181.516861 48.348823 180.178986 C56.088188 179.095734 63.801120 178.201554 69.271946 171.342926 C70.641025 169.626541 73.536655 168.775269 75.891346 168.258743 C86.004856 166.040161 96.176258 164.084458 106.332813 162.064423 C107.416278 161.848938 108.540592 161.838883 109.645954 161.733536 C108.513141 162.217240 107.421962 162.876648 106.240856 163.156586 C97.582775 165.208618 88.778652 166.765442 80.289257 169.358154 C75.920757 170.692322 70.672145 171.699967 68.576122 176.899018 C68.347385 177.466385 68.959011 179.026047 69.352817 179.091553 C74.218990 179.900864 79.104740 180.632858 84.009479 181.161850 C95.906093 182.444885 107.254940 185.644837 117.945827 190.972992 C138.481052 201.207398 156.104511 215.455429 172.986744 230.802002 C178.057834 235.411820 181.744648 242.481735 190.217701 242.339325 C191.027271 242.325714 191.891895 244.168366 192.690693 245.181046 C195.742832 249.050354 198.163654 253.733902 201.950824 256.640061 C209.383030 262.343247 217.444172 267.271744 225.480426 272.131577 C235.763675 278.350266 246.279331 284.184647 256.444843 290.184647 C248.542606 286.532395 240.674289 283.264908 233.297367 279.122360 C225.536747 274.764328 218.285770 269.505783 210.720401 264.787735 C208.980213 263.702469 206.865833 263.217209 204.923664 262.455826 C205.948993 264.300369 206.938251 266.166489 208.021289 267.976517 C208.353153 268.531113 209.025425 268.873703 209.401142 269.411637 C218.604480 282.588486 227.939594 295.676804 236.934696 308.994675 C246.151691 322.641129 253.612445 337.287216 258.774738 352.907822 C263.871845 368.331070 268.254352 383.998551 272.650196 399.643234 C277.330982 416.302078 283.832630 432.148758 295.397754 445.144455 C304.998218 455.932450 315.166095 466.372208 326.126361 475.745774 C335.531269 483.789200 345.908344 491.031784 356.768848 496.953446 C370.807941 504.608322 385.710987 510.522293 401.105518 515.385025 C419.319599 521.138382 437.872120 524.604569 456.682788 527.111038 C460.503864 527.620194 464.468097 526.947159 468.336536 527.228714 C480.426227 528.108719 492.486896 529.505509 504.588245 530.063370 C511.750141 530.393509 518.966694 529.266983 526.160114 529.243729 C536.853717 529.209244 547.336017 528.274918 557.951740 526.460648 C573.907001 523.733841 590.180927 522.882950 606.312702 521.171890 C615.069172 520.243118 623.919208 519.735611 632.536090 518.057816 C646.063861 515.423966 659.577045 513.551834 673.388385 514.165543 C685.223285 514.691483 695.286457 519.831986 704.954181 526.031632 C705.455219 526.352921 705.459369 527.449173 705.694843 528.184647 M856.694843 213.684632 C847.874958 214.184632 838.732196 213.403397 830.320331 215.522812 C820.726581 217.940018 810.382282 221.200028 802.887958 227.230316 C791.719501 236.216995 781.447345 247.024063 773.183368 258.741806 C761.893146 274.750565 755.944294 293.435654 753.707233 313.070938 C752.961261 319.618363 752.573993 326.213761 751.614643 332.727097 C751.045063 336.594406 751.800434 339.672928 753.883625 343.021561 C760.700336 353.979264 767.415607 365.021500 773.625568 376.330094 C782.818317 393.070572 788.811664 411.135605 793.573993 429.532486 C796.869587 442.263596 799.853717 455.186783 801.467609 468.211167 C803.152362 481.807358 803.089069 495.625168 803.662189 509.351425 C803.865986 514.232865 803.694843 519.130020 803.694843 524.019974 C803.694843 534.076065 804.867084 544.303360 803.429157 554.149430 C801.078693 570.243729 797.005390 586.085098 793.702961 602.042252 C791.573017 612.334427 789.375629 622.616104 787.474628 632.951370 C785.388569 644.292374 783.618427 655.691422 781.690632 667.061722 C780.714740 672.817581 780.515094 678.872574 778.506611 684.247452 C775.330097 692.747757 772.041034 701.020157 772.631977 710.333451 C772.781879 712.694901 772.693927 715.336991 771.785297 717.450394 C769.024677 723.871414 769.462116 730.547623 769.773090 737.165848 C770.081989 743.739090 770.946247 750.292740 771.770160 756.829361 C771.919147 758.011246 773.049762 759.069412 773.727192 760.184586 C774.383014 759.214371 775.080707 758.269547 775.688007 757.269852 C779.568805 750.880753 782.694049 743.862320 787.441852 738.203812 C799.324604 724.042130 815.035846 714.496597 830.559955 704.906388 C838.870624 699.772354 847.789814 695.599686 855.956257 690.261734 C867.699970 682.585648 879.284382 674.604080 890.421222 666.079300 C900.801593 658.133377 911.750873 650.376053 920.176349 640.580277 C929.377155 629.883133 937.367328 617.596634 943.356647 604.817703 C951.700153 587.015824 958.558735 568.378678 964.340290 549.572525 C967.352802 539.773270 967.271442 528.861771 967.564411 518.423966 C968.045795 501.272659 967.694843 484.098007 967.694843 466.933182 C967.694843 465.766648 967.898944 464.556992 967.663044 463.440262 C965.484333 453.124527 967.041706 443.014542 969.836628 433.133927 C970.931476 429.263474 969.853534 427.273178 966.991779 425.153977 C953.966205 415.508164 941.056415 405.706009 928.025043 396.068070 C924.418415 393.400589 920.618061 389.261399 915.771686 392.813126 C911.042438 396.278916 906.248432 400.149704 902.836689 404.829727 C891.437519 420.466416 883.876728 438.185288 877.818439 456.405380 C869.965046 480.024246 863.246845 504.018692 855.553852 527.693497 C851.463703 540.280899 846.580585 552.628555 841.637836 564.916519 C834.973529 581.484513 828.311359 598.075760 820.886921 614.308792 C814.789081 627.641312 806.497516 640.037613 801.127460 653.619583 C793.769977 672.227982 784.186786 690.028641 779.612384 709.713639 C779.484272 710.264786 778.713092 710.666397 778.241718 711.137772 C778.059406 710.577957 777.626239 709.961930 777.736835 709.467667 C778.313312 706.890579 779.250507 704.377701 779.638630 701.779190 C780.124164 698.528214 779.958881 695.175980 780.497638 691.937821 C781.762897 684.333206 783.220356 676.758866 784.708271 669.193497 C787.130695 656.875870 789.664631 644.580216 792.104694 632.266007 C794.333698 621.016434 796.533832 609.760880 798.684650 598.496109 C800.544269 588.756607 802.310260 578.999344 804.129474 569.252091 C805.976947 559.353714 808.129413 549.501297 809.610675 539.548722 C811.003559 530.189102 810.947345 520.569657 812.866474 511.342728 C815.899616 496.760208 818.834369 482.122727 824.198383 468.079453 C833.894306 442.694718 843.955280 417.493607 857.746601 393.991532 C861.943317 386.839920 866.025165 379.408524 871.444782 373.233109 C881.353778 361.942337 892.311542 351.578629 902.666584 340.671250 C918.094013 324.420975 937.225299 313.956162 957.353717 304.903671 C960.743122 303.379379 963.665180 300.790451 966.745197 298.611466 C969.433857 296.709366 969.352619 294.725907 966.752216 292.728928 C963.077900 289.907273 959.362690 287.130722 955.808063 284.163407 C949.716266 279.078049 943.548908 274.058670 937.767414 268.634110 C933.228290 264.375168 929.284992 259.486740 924.931171 255.020004 C924.022968 254.088257 922.528400 253.585312 921.211017 253.223999 C918.202350 252.398834 914.690204 252.506745 912.172931 250.954148 C902.829670 245.191513 892.790912 247.792221 883.169819 248.540222 C877.584491 248.974472 871.510456 251.483734 866.952594 254.826615 C859.984882 259.936966 853.313373 265.929764 848.003986 272.712540 C839.588153 283.463730 831.322590 294.606857 824.969806 306.628555 C817.151508 321.423264 810.464435 336.977524 804.960346 352.785599 C799.977314 367.097397 793.039692 381.045578 792.680317 396.716995 C792.669941 397.167618 792.443866 397.613266 792.318317 398.061203 C792.110492 397.562973 791.681049 397.042374 791.728717 396.569962 C792.292865 390.987381 792.071918 385.146713 793.702411 379.883530 C798.997882 362.789719 804.498371 345.724930 810.876056 329.013840 C814.654804 319.112564 819.698993 309.578964 825.143757 300.458847 C831.497577 289.816055 838.629413 279.600601 845.945514 269.580704 C852.246357 260.951218 859.821491 252.799805 869.764911 249.004593 C884.578693 243.350525 900.081806 241.369263 915.231220 249.126160 C916.474994 249.763046 918.142597 249.572403 919.613239 249.766266 C918.960651 248.392609 918.433002 246.938278 917.614704 245.671692 C916.995807 244.713761 916.089435 243.885025 915.167804 243.188065 C907.180927 237.148346 899.454059 230.701721 891.077167 225.257080 C880.877338 218.627579 869.459369 214.907044 856.694843 213.684632 M511.694843 97.684647 C520.151386 103.807839 528.763507 109.729469 537.022785 116.108101 C546.177265 123.178093 555.151142 130.499817 563.938861 138.021317 C571.644550 144.616745 579.203510 151.417175 586.429035 158.531525 C595.362262 167.327271 604.436298 176.081146 612.438923 185.694382 C621.664569 196.776856 629.788349 208.776673 638.389057 220.379303 C647.934528 233.256363 657.891559 245.853821 666.894977 259.099350 C674.408649 270.153214 680.810810 281.963181 687.692768 293.445786 C693.772968 303.590622 699.924640 313.694046 705.880085 323.911759 C711.190448 333.022812 715.714069 342.641678 721.570881 351.375290 C736.023578 372.927139 746.492023 396.213852 754.014240 420.958817 C758.057758 434.260605 762.665546 447.392227 766.626728 460.717179 C769.636799 470.842484 772.218586 481.107193 774.622089 491.396042 C776.021808 497.387650 777.010639 503.518021 777.611530 509.642166 C778.297260 516.631363 778.764484 523.693863 778.583820 530.705338 C778.221393 544.771561 776.058857 558.919510 777.078327 572.855301 C777.999775 585.452469 776.319843 598.209122 780.304401 610.844742 C782.748981 618.597061 781.327167 627.559342 781.737079 635.973648 C781.789875 637.058304 782.417133 638.115006 782.778278 639.184647 C783.417133 638.197403 784.456073 637.274552 784.626850 636.212052 C785.445026 631.122757 785.995502 625.990982 786.718769 620.885330 C786.891254 619.667435 787.424091 618.505264 787.685321 617.294571 C790.854145 602.606217 793.634296 587.821243 797.283954 573.253861 C799.819721 563.132706 801.833820 553.163529 801.849079 542.605850 C801.879902 521.282425 800.521991 500.089066 799.003986 478.834213 C797.951252 464.093674 796.617511 449.508805 792.556842 435.386917 C788.166462 420.118149 783.289997 404.926529 777.485859 390.148911 C773.609455 380.279556 768.220844 370.895279 762.611774 361.850327 C758.225299 354.776993 755.692463 346.144486 747.714740 341.625656 C747.165912 341.314804 746.943439 340.309586 746.710041 339.582108 C746.001178 337.372116 745.750202 334.918534 744.630817 332.952774 C738.094806 321.474899 730.932148 310.334000 724.814655 298.643143 C718.605121 286.776230 712.655841 274.674149 707.872333 262.184921 C701.805133 246.344055 697.055988 229.999756 691.687885 213.889420 C684.920917 193.581070 678.387043 173.441757 665.000080 155.847122 C654.199726 141.652176 640.265461 132.264603 625.683307 123.259819 C617.390461 118.138794 608.439350 114.086975 600.119831 109.005036 C582.732563 98.384209 567.604877 84.877213 552.917499 70.875290 C548.476642 66.641670 544.396503 62.018990 539.841449 57.918438 C533.228717 51.965496 526.128864 46.547272 519.604572 40.503876 C506.529010 28.392184 493.059925 16.751814 477.616687 7.793678 C469.075519 2.839200 459.132099 0.895761 450.427997 6.399863 C438.582660 13.890323 426.617725 20.496327 412.646564 22.705223 C400.419544 24.638361 388.165851 26.406758 375.911243 28.158968 C372.407062 28.660004 368.864429 28.945791 365.329120 29.162234 C360.183612 29.477257 355.027637 29.618429 349.879230 29.892014 C349.142231 29.931177 348.422535 30.296623 347.694843 30.511067 C348.234394 31.735592 348.576038 33.878727 349.343799 34.044148 C358.104663 35.931816 367.183582 36.702305 375.690082 39.342053 C398.535755 46.431534 421.825061 52.726567 443.660602 62.262497 C466.818927 72.376084 490.375354 82.296501 511.694843 97.684647 M1198.694843 506.684647 C1202.011615 508.334671 1205.264179 510.132309 1208.657123 511.606827 C1218.462055 515.867874 1223.648944 514.632767 1226.965717 510.349014 C1230.573749 505.688797 1228.723163 500.288742 1228.163227 495.273300 C1227.441425 488.807297 1223.145649 484.147354 1218.733783 479.719681 C1209.925800 470.880326 1201.081318 462.076615 1192.344013 453.167954 C1186.704364 447.417923 1180.237690 442.150376 1175.927753 435.507767 C1170.427997 427.031326 1166.837787 417.331192 1162.227436 408.258682 C1156.488300 396.964707 1149.941425 386.039780 1144.852314 374.467819 C1138.847431 360.813095 1134.458027 346.450363 1128.519916 332.762650 C1125.388324 325.544235 1121.748676 317.627609 1116.050678 312.639420 C1105.364765 303.284622 1091.941303 299.008530 1077.487445 301.338425 C1070.200580 302.513077 1062.342792 303.919968 1056.195087 307.628617 C1041.962665 316.214401 1027.409809 324.804489 1017.970295 339.371781 C1012.678669 347.538040 1006.648334 355.269333 1001.895221 363.727341 C997.845173 370.934372 995.164447 378.908524 991.844684 386.528794 C986.680072 398.383469 981.437641 410.204575 976.335346 422.085892 C974.728046 425.828751 975.295551 428.941025 979.603595 430.635514 C982.179157 431.648606 984.598774 433.052445 987.154743 434.122177 C999.222675 439.172928 1011.076679 444.879593 1023.456318 449.003769 C1038.734760 454.093643 1054.448871 457.880478 1069.990619 462.173233 C1078.668720 464.570175 1087.433368 466.668259 1096.059955 469.233841 C1105.529926 472.050247 1114.922504 475.141983 1124.282123 478.310410 C1134.647236 481.819046 1144.767719 486.172806 1155.299945 489.035691 C1170.312397 493.116440 1185.208149 497.171311 1198.694843 506.684647 M871.694843 378.684647 C870.162738 381.216721 868.856037 383.922318 867.062153 386.252854 C854.998737 401.924607 847.067890 419.782974 839.742694 437.929123 C834.613361 450.635697 829.935566 463.524460 825.048847 476.329087 C819.363239 491.227249 816.727985 506.806839 814.690815 522.523636 C813.338825 532.953873 812.294269 543.439469 810.491047 553.792069 C807.850849 568.949967 804.742328 584.028885 801.667499 599.107681 C799.135090 611.526139 796.386249 623.900894 793.687214 636.284989 C791.390583 646.822830 788.887165 657.317703 786.747638 667.886795 C785.460468 674.245621 784.679340 680.707657 783.720539 687.130753 C783.631794 687.725296 783.903095 688.373612 784.007160 688.996964 C784.569721 688.522049 785.232929 688.123551 785.667316 687.551285 C786.123859 686.949906 786.418415 686.203385 786.686420 685.484085 C791.364765 672.926102 795.443378 660.104569 800.842548 647.865311 C807.622455 632.496231 815.724445 617.715958 822.802143 602.470963 C829.088398 588.930680 835.421222 575.345841 840.532550 561.342240 C847.515949 542.209915 853.451069 522.690933 859.665668 503.283249 C864.379902 488.560806 868.781330 473.738419 873.408222 458.987564 C878.839191 441.673416 886.346882 425.218491 895.870746 409.847885 C900.498249 402.379410 904.996479 394.428513 912.880268 389.413529 C916.553791 387.076767 919.889057 385.745194 923.813007 388.772690 C938.069049 399.771622 952.390644 410.685532 966.656330 421.672043 C969.245624 423.666092 971.336506 424.555069 972.890888 420.548569 C973.947040 417.826340 975.514118 415.306900 976.677143 412.620743 C981.386737 401.743057 986.578632 391.033249 990.571674 379.895493 C997.322467 361.065567 1008.356891 344.989487 1021.384662 330.230301 C1026.958637 323.915512 1033.920551 318.829697 1040.203510 313.132279 C1041.059101 312.356369 1041.633319 311.270188 1042.337909 310.327683 C1040.996235 309.946671 1039.446430 308.926712 1038.345478 309.285050 C1028.974750 312.335007 1019.486713 310.201889 1010.065570 310.109268 C1006.603107 310.075211 1003.108356 309.372879 999.698993 308.644425 C990.329792 306.642594 981.958515 302.337906 973.933185 297.231278 C972.429645 296.274582 970.267109 295.175827 969.712848 298.382309 C969.074237 302.076584 966.581440 303.676895 963.411823 305.272415 C950.574482 311.734299 937.313678 317.630417 925.361103 325.487747 C915.688007 331.846634 907.317402 340.362900 899.000995 348.563187 C889.532917 357.899124 880.766376 367.946518 871.694843 378.684647 M1080.694843 731.684647 C1080.694843 733.348221 1081.240986 735.268936 1080.599872 736.630753 C1077.884174 742.399735 1080.936786 745.397904 1085.286884 748.372269 C1091.230610 752.436173 1097.122333 751.704972 1103.280536 749.205460 C1108.715961 746.999161 1107.571552 742.314408 1107.686542 738.081680 C1107.736225 736.253067 1107.496112 734.396500 1107.727436 732.596268 C1109.088764 722.004227 1105.089008 713.969437 1097.183735 706.914749 C1090.895649 701.303177 1081.006611 699.265640 1072.966327 703.414871 C1070.665058 704.602371 1070.131244 705.843338 1071.419330 708.581070 C1074.817768 715.804642 1077.641986 723.298416 1080.694843 731.684647 M1064.194843 854.184647 C1058.121235 855.976944 1053.323871 859.203507 1049.584736 864.618912 C1042.875263 874.336319 1040.161396 885.671036 1035.799335 896.328995 C1034.876117 898.584671 1032.264789 900.704727 1034.834613 903.994766 C1039.227436 909.618851 1051.661640 907.851395 1054.540546 900.421768 C1056.419941 895.571488 1059.492694 892.643997 1063.859882 890.462479 C1065.253559 889.766312 1067.368061 888.774124 1067.548725 887.657730 C1069.360859 876.463883 1072.770038 865.040299 1064.194843 854.184647 M1072.194965 750.184708 C1073.694965 748.149246 1076.354023 746.191605 1076.496845 744.065018 C1077.161762 734.163346 1077.563861 724.053543 1071.596943 715.331253 C1069.689594 712.543167 1066.628437 710.544510 1064.095234 708.184647 C1062.012958 710.633377 1059.890522 713.050003 1057.888324 715.562576 C1057.554950 715.980789 1057.860859 716.851883 1057.677021 717.454361 C1055.747455 723.778031 1055.779682 730.644669 1051.274311 736.252396 C1046.223652 742.538651 1049.111591 749.075516 1052.311054 755.055374 C1053.156879 756.636307 1055.866718 757.754410 1057.881733 758.076187 C1064.186298 759.082840 1067.620868 754.173355 1072.194965 750.184708 M827.194843 903.184647 C833.434650 904.275284 838.527179 901.365189 843.786518 898.681717 C848.287799 896.385208 852.980549 894.184220 857.770282 898.563675 C858.332843 899.078018 860.920856 898.598587 861.323627 897.880631 C866.343097 888.933487 871.340229 879.905350 871.623920 869.278031 C871.676349 867.314591 870.805072 865.326615 870.360126 863.349869 C867.873737 864.059403 865.169147 864.375138 862.966327 865.596146 C861.009784 866.680680 859.748798 868.945145 857.935627 870.378678 C854.087482 873.420975 850.469684 877.270340 846.056720 878.975357 C836.758747 882.567764 830.018390 888.713333 824.691791 896.750748 C823.074054 899.191727 822.226032 901.855972 827.194843 903.184647 M1002.194843 848.184647 C995.454975 851.324173 989.336872 855.350418 985.544757 861.919693 C981.376178 869.141068 977.388874 876.492874 973.848590 884.034744 C972.864032 886.132157 972.992939 889.768997 977.333454 889.141800 C980.417682 888.696060 983.560871 888.168778 986.466205 887.101944 C989.870990 885.851700 993.133930 884.517044 996.563129 886.592728 C999.493427 888.366532 1001.666645 886.750748 1002.588520 884.558670 C1006.586933 875.051041 1008.652118 865.055008 1007.511982 854.741837 C1007.255878 852.425369 1004.694843 850.363663 1002.194843 848.184647 M1030.694843 874.684647 C1030.784809 869.774674 1031.732563 864.687638 1030.764179 859.996170 C1029.307026 852.936661 1023.860981 849.917862 1016.765522 849.087662 C1010.652973 848.372391 1010.484943 848.010452 1010.739948 854.048172 C1011.230732 865.667374 1010.457233 876.964127 1004.184894 887.234085 C1003.175129 888.887467 1003.183979 889.828385 1005.787922 890.314408 C1010.314472 891.159378 1014.887409 892.370133 1019.072956 894.247879 C1022.968036 895.995316 1024.662861 894.720352 1025.678119 891.253678 C1027.241718 885.914322 1028.694843 880.542618 1030.694843 874.684647 M1068.694843 887.684647 C1068.694843 888.348953 1068.683857 889.013382 1068.696430 889.677445 C1068.820453 896.219010 1075.332172 903.038223 1081.590351 903.184586 C1087.636615 903.326065 1092.793476 893.147537 1089.115741 886.411637 C1085.807758 880.352799 1086.362568 874.046341 1085.859028 867.860428 C1085.192402 859.672013 1082.511005 855.604935 1074.641376 854.241043 C1073.099750 853.973892 1071.432392 854.432572 1069.822895 854.556534 C1070.086444 856.238846 1070.298847 857.931046 1070.624530 859.601212 C1071.282123 862.974503 1072.814838 866.409805 1072.516620 869.685806 C1071.981220 875.570755 1070.361469 881.357132 1068.694843 887.684647 M877.694904 867.684647 C874.361591 876.598648 870.927143 885.476517 867.726154 894.437760 C865.058307 901.906449 865.180011 901.948929 873.473529 905.473526 C873.615192 905.533707 873.690265 905.757034 873.831806 905.810501 C879.124347 907.809097 886.123310 905.217362 887.991474 900.343216 C890.579181 893.591385 891.961017 886.603897 889.476886 879.546890 C887.559833 874.100846 885.461383 868.569596 879.713153 865.804886 C879.281269 865.597244 878.378681 866.368485 877.694904 867.684647 z"/><path class="selected"  fill="#000000" opacity="1.000000" stroke="none" 
 	d="
M443.694843 378.934647 C439.095325 375.418442 434.478473 371.673172 429.900104 367.881424 C421.962024 361.307175 414.276874 354.398178 406.037311 348.228317 C401.114948 344.542404 395.465259 341.741409 389.917225 338.998245 C382.057270 335.111984 374.212513 331.001999 365.960559 328.144882 C352.097767 323.345139 338.009113 319.128525 323.853107 315.260941 C302.234424 309.354508 280.544147 303.760208 260.579395 293.167923 C259.884479 292.799271 259.320087 292.184647 258.694843 291.434647 C266.940601 294.597061 275.025440 298.490952 283.468494 301.313248 C297.393604 305.968064 311.385486 310.615677 325.643360 314.042587 C355.700916 321.266983 384.484699 331.416886 409.988941 349.206101 C419.088062 355.552750 427.166645 363.376908 435.601459 370.653732 C438.472095 373.130326 441.006702 375.996506 443.694843 378.934647 z"/><path class="selected"  fill="#000000" opacity="1.000000" stroke="none" 
 	d="
M657.694843 397.934647 C654.807758 397.975357 653.742939 398.378372 655.514728 401.639054 C659.780109 409.489090 663.785175 417.495560 667.551654 425.598648 C675.786396 443.314957 683.811176 461.128861 691.900470 478.912552 C692.187641 479.543778 692.249286 480.277512 692.416034 480.963486 C691.842304 480.350144 691.087238 479.828812 690.722065 479.109604 C685.349140 468.525528 679.826130 458.010910 674.741718 447.288712 C666.897236 430.746292 659.343708 414.065628 651.702778 397.427048 C648.163959 389.721085 642.975849 383.293534 636.694843 377.434647 C641.743732 376.907608 637.505756 373.850113 637.299518 373.545212 C633.768634 368.324753 629.949848 363.299942 626.226520 358.208542 C622.696491 353.381455 619.203876 348.527054 615.694843 343.434647 C621.028156 349.839371 626.481647 356.402054 631.667926 363.169480 C640.432636 374.606308 649.028217 386.172714 657.694843 397.934647 z"/><path class="selected"  fill="#000000" opacity="1.000000" stroke="none" 
 	d="
M567.694843 442.934647 C559.867939 441.184647 551.858295 439.711716 544.252704 437.073624 C528.993244 431.780655 513.601886 426.620102 498.954914 419.900803 C489.945819 415.767868 482.033893 409.094712 473.953510 403.123459 C463.695484 395.543015 453.766010 387.517960 443.694843 379.434647 C447.567463 381.890579 451.566425 384.434006 455.291065 387.330277 C472.545551 400.747574 489.810138 414.294357 509.757892 423.449906 C520.623920 428.437119 532.425983 431.401871 543.843769 435.163834 C551.760700 437.772263 559.742206 440.184677 567.694843 442.934647 z"/><path class="selected"  fill="#000000" opacity="1.000000" stroke="none" 
 	d="
M694.694843 505.934647 C685.573078 497.554795 676.628376 488.671189 665.506855 482.553086 C657.253437 478.012802 648.917133 473.597153 640.433612 469.508011 C631.424152 465.165329 622.435505 460.577072 613.007465 457.355026 C600.271198 453.002457 587.116047 449.880326 574.161823 446.156632 C571.951923 445.521408 569.847797 444.517990 567.694843 443.434647 C574.677448 445.184647 581.651813 447.214066 588.644550 449.177902 C599.515400 452.230911 610.617084 454.634842 621.207111 458.459549 C629.547626 461.471787 637.318622 466.106522 645.242939 470.212876 C654.010273 474.756027 662.832294 479.234116 671.322162 484.261246 C680.553791 489.727616 688.494342 496.808792 694.694843 505.934647 z"/><path class="selected"  fill="#000000" opacity="1.000000" stroke="none" 
 	d="
M615.694843 342.934647 C610.351093 337.340897 605.036762 331.469895 599.656940 325.659561 C590.738361 316.027298 582.062397 306.147659 572.762226 296.897049 C561.218403 285.414719 549.156757 274.452194 537.282123 263.304123 C535.649982 261.771836 533.735798 260.541184 532.092670 259.019180 C531.280536 258.266983 530.788593 257.169144 530.151752 256.227707 C531.073139 256.787033 532.131611 257.201920 532.896015 257.926804 C553.219684 277.198837 573.806415 296.207596 593.669819 315.944077 C601.820881 324.043015 608.400409 333.723587 615.694843 342.934647 z"/><path class="selected"  fill="#000000" opacity="1.000000" stroke="none" 
 	d="
M50.444847 166.934647 C53.836090 163.876740 56.637703 160.502991 60.186000 158.373245 C68.810009 153.196915 77.773388 148.584595 86.630359 143.801178 C87.176723 143.506104 87.985775 143.697418 88.672611 143.662430 C88.216068 144.133774 87.841396 144.757538 87.290584 145.053391 C80.205356 148.858994 72.791637 152.153595 66.086795 156.535065 C60.704265 160.052429 55.988979 164.685288 51.370208 169.222779 C49.871593 170.695008 49.654644 173.447968 48.764583 175.578842 C48.513424 176.180145 47.954536 176.652924 47.536792 177.184647 C47.256145 176.534409 46.580227 175.734879 46.760116 175.258591 C47.792652 172.524826 49.028179 169.867737 50.444847 166.934647 z"/><path class="selected"  fill="#000000" opacity="1.000000" stroke="none" 
 	d="
M274.694843 136.434647 C284.319538 137.851319 294.054981 139.049439 303.543689 141.291565 C318.784595 144.892929 333.862781 149.183197 349.007557 153.190460 C349.557117 153.335892 350.084095 153.566818 350.621601 153.757889 C350.015033 153.900131 349.342823 154.288315 348.812030 154.146668 C343.427082 152.709564 338.107715 151.006745 332.688526 149.721787 C318.885669 146.448975 305.046741 143.327088 291.210437 140.196976 C285.721271 138.955216 280.200977 137.851319 274.694843 136.434647 z"/><path class="selected"  fill="#000000" opacity="1.000000" stroke="none" 
 	d="
M262.694843 133.934647 C253.569263 132.892395 244.455051 131.511521 235.314304 130.337403 C228.631015 129.478928 221.918369 128.833176 215.208301 128.204895 C210.525791 127.766449 205.824848 127.526169 201.134113 127.171555 C200.681751 127.137375 200.243229 126.920273 199.798282 126.788086 C200.312275 126.586945 200.847248 126.169197 201.337146 126.216675 C210.932346 127.146408 220.523426 128.119324 230.112934 129.106934 C236.656818 129.780899 243.215061 130.356323 249.732471 131.231888 C254.084552 131.816574 258.376178 132.851303 262.694843 133.934647 z"/><path class="selected"  fill="#000000" opacity="1.000000" stroke="none" 
 	d="
M172.944843 150.434647 C186.174244 150.184647 199.154834 150.081040 212.132526 150.229782 C218.320758 150.300705 224.503910 150.844315 230.688129 151.195420 C231.310398 151.230728 231.924137 151.415970 232.541843 151.531647 C231.901996 151.749314 231.256580 152.171448 230.623127 152.154206 C219.943866 151.863449 209.266056 151.255814 198.588016 151.257813 C187.743457 151.259827 176.899295 151.861817 166.053882 152.162262 C165.288746 152.183441 164.514743 151.884659 163.744861 151.734665 C164.467594 151.551331 165.181186 151.272507 165.914737 151.202439 C168.170688 150.986923 170.434238 150.851319 172.944843 150.434647 z"/><path class="selected"  fill="#000000" opacity="1.000000" stroke="none" 
 	d="
M179.694843 126.184647 C170.500965 126.517975 161.807529 126.863892 153.112476 127.162949 C152.341648 127.189469 151.560306 126.910645 150.783847 126.773651 C151.476383 126.577316 152.157978 126.272568 152.863147 126.201431 C159.749744 125.506867 166.629154 124.521103 173.533161 124.289269 C179.043476 124.104256 184.586628 124.827690 190.111972 125.196526 C192.261417 125.340004 194.401966 125.616844 196.546558 125.832939 C194.262149 125.950173 191.978855 126.127892 189.693058 126.170006 C186.527973 126.228333 183.361011 126.184647 179.694843 126.184647 z"/><path class="selected"  fill="#000000" opacity="1.000000" stroke="none" 
 	d="
M577.694843 324.434647 C581.438556 326.761643 585.370746 329.108078 588.877704 331.974686 C593.166217 335.479996 597.108905 339.409867 601.171039 343.188553 C601.688923 343.670334 602.025226 344.347305 602.445636 344.933853 C601.761432 344.750199 600.903888 344.768631 600.419025 344.352646 C592.815937 337.829666 585.260944 331.250717 577.694843 324.434647 z"/><path class="selected"  fill="#000000" opacity="1.000000" stroke="none" 
 	d="
M275.694843 156.434647 C287.872150 156.619843 299.126361 160.913605 310.530628 164.561630 C311.242450 164.789337 311.810688 165.465973 312.445728 165.933747 C311.664234 165.986176 310.814319 166.266541 310.111866 166.055680 C303.333973 164.021134 296.620014 161.763809 289.807026 159.859101 C285.169605 158.562592 280.403431 157.726578 275.694843 156.434647 z"/><path class="selected"  fill="#000000" opacity="1.000000" stroke="none" 
 	d="
M137.944843 127.434647 C138.360660 127.184647 138.526645 127.179489 138.692249 127.185425 C141.632846 127.290711 144.573368 127.397354 147.513919 127.503739 C144.716220 128.064041 141.919513 128.629410 139.120624 129.183701 C130.691883 130.852997 122.266849 132.541886 113.826473 134.150208 C112.914119 134.324066 111.910938 134.021347 110.949894 133.939697 C111.795848 133.590378 112.612163 133.106201 113.492366 132.912781 C121.553539 131.141327 129.625812 129.420349 137.944843 127.434647 z"/><path class="selected"  fill="#000000" opacity="1.000000" stroke="none" 
 	d="
M418.694843 180.434647 C423.633533 182.289993 428.625507 184.280335 433.494709 186.535706 C437.680530 188.474533 441.746265 190.678253 445.819080 192.851212 C446.788898 193.368637 447.574939 194.230530 448.445514 194.933975 C447.311084 194.633331 446.084827 194.516632 445.056690 194.003159 C436.249073 189.604386 427.477314 185.133789 418.694843 180.434647 z"/><path class="selected"  fill="#000000" opacity="1.000000" stroke="none" 
 	d="
M528.694843 284.934647 C525.165790 282.517960 521.679584 279.792008 518.096576 277.199906 C513.782673 274.079056 509.369800 271.095017 505.049335 267.982926 C504.572864 267.639725 504.421344 266.845444 504.119129 266.260361 C504.684833 266.442246 505.358783 266.484574 505.800129 266.826798 C513.448749 272.757492 521.068622 278.725113 528.694843 284.934647 z"/><path class="selected"  fill="#000000" opacity="1.000000" stroke="none" 
 	d="
M624.694843 365.934647 C622.678486 364.668320 620.497394 363.325699 618.679096 361.600601 C614.484028 357.620529 610.448749 353.470810 606.393634 349.345780 C605.837299 348.779892 605.537311 347.962021 605.118671 347.260819 C605.917499 347.675553 606.877460 347.926804 607.490131 348.530472 C613.258869 354.214218 618.968280 359.958084 624.694843 365.934647 z"/><path class="selected"  fill="#000000" opacity="1.000000" stroke="none" 
 	d="
M700.694843 462.184647 C703.636066 468.625870 706.619953 474.546860 709.459308 480.536362 C709.779377 481.211472 709.283527 482.273422 709.166156 483.155991 C708.813190 482.469712 708.438617 481.793534 708.110675 481.095474 C704.967609 474.405686 701.822773 467.716660 698.707599 461.013870 C698.338947 460.220658 698.144916 459.346298 697.869953 458.509537 C698.478229 459.206497 699.083210 459.906418 699.696186 460.599228 C700.021869 460.967392 700.361530 461.323197 700.694843 462.184647 z"/><path class="selected"  fill="#000000" opacity="1.000000" stroke="none" 
 	d="
M247.694843 152.184647 C251.534107 152.517975 254.874256 152.842896 258.211597 153.194550 C258.666340 153.242478 259.106952 153.424179 259.554126 153.543930 C259.074054 153.757508 258.586322 154.172501 258.115039 154.154572 C250.468891 153.863709 242.824588 153.523041 235.180851 153.171921 C234.728870 153.151154 234.285328 152.946655 233.837848 152.827652 C234.316089 152.613327 234.792041 152.219086 235.272892 152.213028 C239.246372 152.162873 243.220737 152.184647 247.694843 152.184647 z"/><path class="selected"  fill="#000000" opacity="1.000000" stroke="none" 
 	d="
M406.944843 212.934647 C406.818958 212.184647 406.943073 211.684647 407.067157 211.184647 C412.251850 214.326782 417.445881 217.453842 422.602527 220.641342 C422.990436 220.881134 423.111896 221.551865 423.357227 222.022263 C422.789203 221.895813 422.145984 221.899872 421.664753 221.622742 C416.826221 218.836487 412.014270 216.004074 406.944843 212.934647 z"/><path class="selected"  fill="#000000" opacity="1.000000" stroke="none" 
 	d="
M657.694843 398.434647 C661.603778 402.593552 665.523029 406.993424 669.397541 411.432358 C669.648700 411.720169 669.554889 412.309067 669.621601 412.757889 C669.153339 412.574143 668.512897 412.526749 668.242939 412.185929 C664.696430 407.709671 661.202167 403.192002 657.694843 398.434647 z"/><path class="selected"  fill="#000000" opacity="1.000000" stroke="none" 
 	d="
M464.444843 242.434647 C459.012500 240.335633 453.325489 237.997727 447.658619 235.611954 C447.291828 235.457550 447.080188 234.934632 446.796344 234.583161 C447.362629 234.550446 448.031452 234.303345 448.479511 234.517731 C453.737110 237.033295 458.961628 239.618103 464.444843 242.434647 z"/><path class="selected"  fill="#000000" opacity="1.000000" stroke="none" 
 	d="
M483.444843 252.434647 C479.788593 250.851319 475.875751 249.031861 471.979114 247.178314 C470.234729 246.348526 468.522846 245.450379 466.796222 244.583252 C468.784076 245.117050 470.921955 245.349472 472.728107 246.248368 C476.313709 248.032837 479.716510 250.184647 483.444843 252.434647 z"/><path class="selected"  fill="#000000" opacity="1.000000" stroke="none" 
 	d="
M390.444843 202.434647 C389.394916 201.718033 388.594959 201.251435 387.795032 200.784836 C388.528186 200.851303 389.382740 200.695999 389.974811 201.020142 C393.895435 203.166748 397.772022 205.395355 401.623005 207.665009 C402.001087 207.887818 402.109272 208.568558 402.342731 209.036759 C401.776905 208.902847 401.137745 208.894806 400.657032 208.614777 C397.317859 206.669678 394.011646 204.668106 390.444843 202.434647 z"/><path class="selected"  fill="#000000" opacity="1.000000" stroke="none" 
 	d="
M624.694843 366.434647 C628.694843 369.684647 632.694843 373.184647 636.694843 376.934647 C632.694843 373.684616 628.694843 370.184616 624.694843 366.434647 z"/><path class="selected"  fill="#000000" opacity="1.000000" stroke="none" 
 	d="
M149.694843 155.184647 C149.028247 155.184647 148.858829 155.164581 148.695499 155.187683 C146.508716 155.497086 144.323154 155.815216 142.132831 156.096634 C142.104618 156.100250 142.018757 155.655289 141.959797 155.419693 C143.954929 155.008011 145.944355 154.564697 147.948490 154.202912 C148.593814 154.086411 149.284015 154.242951 149.943134 154.173935 C152.107883 153.947296 154.267795 153.674454 156.429554 153.419357 C154.351322 154.007782 152.273075 154.596207 149.694843 155.184647 z"/><path class="selected"  fill="#000000" opacity="1.000000" stroke="none" 
 	d="
M501.694843 231.934647 C498.694843 230.017975 495.694843 227.851319 492.694843 225.434647 C495.694843 227.351319 498.694843 229.517990 501.694843 231.934647 z"/><path class="selected"  fill="#000000" opacity="1.000000" stroke="none" 
 	d="
M330.694843 173.434647 C331.027332 173.184647 331.403980 173.080841 331.685596 173.200531 C334.937183 174.582520 338.174366 175.998352 341.415393 177.405197 C339.212696 176.869171 336.988971 176.404297 334.817707 175.762055 C333.951587 175.505860 333.215625 174.830872 332.393390 174.397766 C331.852161 174.112686 331.262714 173.919174 330.694843 173.434647 z"/><path class="selected"  fill="#000000" opacity="1.000000" stroke="none" 
 	d="
M674.944843 422.934647 C674.489643 421.556473 674.284504 420.428330 674.079242 419.300186 C674.659870 420.137070 675.227497 420.983322 675.823993 421.808762 C676.743122 423.080673 677.755451 424.292587 678.582050 425.620987 C679.011615 426.311325 679.127704 427.196732 679.385456 427.994034 C678.685749 427.421433 677.882953 426.935532 677.311298 426.255295 C676.515155 425.307968 675.892048 424.215164 674.944843 422.934647 z"/><path class="selected"  fill="#000000" opacity="1.000000" stroke="none" 
 	d="
M380.944843 197.934647 C379.379871 196.999619 378.064899 196.314591 376.749927 195.629563 C378.314899 195.897919 379.881092 196.159561 381.442615 196.446732 C381.575031 196.471085 381.657276 196.699722 381.794696 196.776322 C383.040058 197.470337 384.292469 198.151627 385.542835 198.836670 C384.093494 198.619339 382.644184 198.401993 380.944843 197.934647 z"/><path class="selected"  fill="#000000" opacity="1.000000" stroke="none" 
 	d="
M349.944843 182.934647 C348.377552 182.001938 347.060260 181.319245 345.742969 180.636536 C347.305378 180.897690 348.869007 181.152130 350.427997 181.432160 C350.559894 181.455857 350.649158 181.666626 350.778339 181.763718 C351.699451 182.456024 352.625812 183.141403 353.550495 183.828995 C352.431934 183.614212 351.313404 183.399430 349.944843 182.934647 z"/><path class="selected"  fill="#000000" opacity="1.000000" stroke="none" 
 	d="
M127.694843 157.184647 C129.626865 157.283341 131.058902 157.382034 132.490924 157.480728 C131.251148 157.715363 130.009891 157.942581 128.772678 158.190048 C128.477619 158.249039 128.202259 158.426666 127.907261 158.462387 C126.575306 158.623718 125.239536 158.753693 123.905140 158.894943 C125.001712 158.324845 126.098270 157.754746 127.694843 157.184647 z"/><path class="selected"  fill="#000000" opacity="1.000000" stroke="none" 
 	d="
M393.444843 170.434647 C392.102741 169.610092 391.010608 169.035538 389.918506 168.460983 C390.373401 168.368866 390.912311 168.072373 391.269092 168.218994 C393.094745 168.969254 394.873401 169.833740 396.668506 170.658295 C395.677295 170.667084 394.686054 170.675858 393.444843 170.434647 z"/><path class="selected"  fill="#000000" opacity="1.000000" stroke="none" 
 	d="
M330.694843 172.934647 C328.395221 172.385040 326.095630 171.585434 323.796009 170.785828 C325.151752 170.918778 326.545795 170.901139 327.850818 171.233292 C328.856800 171.489304 329.750965 172.184662 330.694843 172.934647 z"/><path class="selected"  fill="#000000" opacity="1.000000" stroke="none" 
 	d="
M544.694843 297.934647 C543.060993 297.050797 541.427082 295.916916 539.793232 294.783035 C539.968647 294.583603 540.285602 294.200241 540.299335 294.210800 C541.779194 295.349625 543.236347 296.517990 544.694843 297.934647 z"/><path class="selected"  fill="#000000" opacity="1.000000" stroke="none" 
 	d="
M544.694843 298.434647 C546.328693 299.318527 547.962604 300.452408 549.596454 301.586258 C549.421039 301.785721 549.104145 302.169144 549.090351 302.158524 C547.610431 301.019699 546.153339 299.851303 544.694843 298.434647 z"/><path class="selected"  fill="#000000" opacity="1.000000" stroke="none" 
 	d="
M537.444843 291.434647 C537.904377 292.141800 538.113910 292.598923 538.323444 293.056107 C537.654377 292.806107 536.798847 292.733536 536.356037 292.268234 C535.500690 291.369370 534.878193 290.248947 534.159137 289.220383 C535.171039 289.875138 536.182941 290.529892 537.444843 291.434647 z"/><path class="selected"  fill="#000000" opacity="1.000000" stroke="none" 
 	d="
M501.694843 232.434662 C503.328693 233.318527 504.962574 234.452393 506.596454 235.586243 C506.421039 235.785691 506.104053 236.169113 506.090320 236.158508 C504.610462 235.019699 503.153309 233.851319 501.694843 232.434662 z"/><path class="selected"  fill="#000000" opacity="1.000000" stroke="none" 
 	d="
M485.444843 220.434647 C484.442432 219.270386 483.690052 218.356110 482.937641 217.441834 C483.378162 217.377533 484.049213 217.098587 484.221698 217.283814 C485.328418 218.472611 486.325794 219.763214 487.359150 221.020340 C486.804371 220.908432 486.249622 220.796540 485.444843 220.434647 z"/><path class="selected"  fill="#000000" opacity="1.000000" stroke="none" 
 	d="
M526.944843 254.934647 C525.723407 253.656082 524.751972 252.627518 523.780536 251.598953 C524.046589 251.460861 524.473529 251.140366 524.554584 251.211899 C525.900837 252.399872 527.203754 253.637009 528.516315 254.863175 C528.075824 254.970322 527.635334 255.077469 526.944843 254.934647 z"/><path class="selected"  fill="#000000" opacity="1.000000" stroke="none" 
 	d="
M358.694843 156.184647 C359.636585 156.409577 360.078357 156.634491 360.520099 156.859406 C358.423114 156.634491 356.324543 156.422119 354.232502 156.158020 C354.084247 156.139298 353.984058 155.740204 353.861499 155.517990 C354.141193 155.406876 354.455005 155.152039 354.694782 155.208985 C355.872272 155.488709 357.030079 155.851319 358.694843 156.184647 z"/><path class="selected"  fill="#000000" opacity="1.000000" stroke="none" 
 	d="
M455.694843 199.434647 C457.328052 199.984513 458.961231 200.784363 460.594440 201.584213 C460.416858 201.784363 460.131244 202.184525 460.077442 202.155487 C458.602131 201.358612 457.150470 200.517975 455.694843 199.434647 z"/><path class="selected"  fill="#000000" opacity="1.000000" stroke="none" 
 	d="
M455.694843 198.934647 C454.061634 198.384781 452.428455 197.584931 450.795246 196.785050 C450.972797 196.584915 451.258442 196.184708 451.312214 196.213761 C452.787555 197.010666 454.239215 197.851319 455.694843 198.934647 z"/><path class="selected"  fill="#000000" opacity="1.000000" stroke="none" 
 	d="
M468.444843 206.934647 C466.727192 206.383652 465.259510 205.582657 463.791828 204.781662 C463.971912 204.582642 464.260120 204.183487 464.316242 204.213822 C465.790424 205.010330 467.240589 205.851303 468.444843 206.934647 z"/><path class="selected"  fill="#000000" opacity="1.000000" stroke="none" 
 	d="
M695.444843 455.434647 C695.028156 454.762924 694.844623 454.346970 694.698444 453.918259 C694.422199 453.107956 694.167438 452.290299 693.903705 451.475693 C694.500812 452.179459 695.156696 452.842758 695.676410 453.599686 C696.100422 454.217301 696.371967 454.942124 696.677509 455.634262 C696.705707 455.698105 696.469928 455.983566 696.392780 455.969437 C696.150898 455.925095 695.926166 455.786667 695.444843 455.434647 z"/><path class="selected"  fill="#000000" opacity="1.000000" stroke="none" 
 	d="
M431.444843 225.434647 C432.671833 226.374329 433.648822 227.063996 434.625812 227.753678 C434.358142 227.897309 433.969898 228.234757 433.841388 228.154785 C432.490680 227.314392 431.181537 226.407273 429.860889 225.518601 C430.305530 225.407288 430.750202 225.295975 431.444843 225.434647 z"/><path class="selected"  fill="#000000" opacity="1.000000" stroke="none" 
 	d="
M554.444843 305.934647 C553.636249 305.959397 552.961261 305.860825 552.546344 305.479294 C551.917499 304.901077 551.469623 304.126053 550.944843 303.434647 C551.733905 303.723709 552.574848 303.921555 553.295063 304.331528 C553.841388 304.642533 554.233905 305.223709 554.444843 305.934647 z"/><path class="selected"  fill="#000000" opacity="1.000000" stroke="none" 
 	d="
M556.694843 307.184647 C558.018512 308.008316 558.842243 308.832016 559.665912 309.655716 C559.425434 309.832047 559.000812 310.188828 558.971149 310.158524 C558.022113 309.190293 557.111408 308.184647 556.694843 307.184647 z"/><path class="selected"  fill="#000000" opacity="1.000000" stroke="none" 
 	d="
M577.694843 323.934647 C576.394794 323.384567 575.094684 322.584519 573.794635 321.784470 C573.971576 321.584519 574.281574 321.194596 574.306354 321.211930 C575.451435 322.013901 576.571735 322.851303 577.694843 323.934647 z"/><path class="selected"  fill="#000000" opacity="1.000000" stroke="none" 
 	d="
M418.694843 179.934647 C417.062427 179.718903 415.430042 179.253174 413.797626 178.787430 C413.977741 178.586487 414.220905 178.182038 414.328479 178.215363 C415.794910 178.669708 417.242572 179.184647 418.694843 179.934647 z"/><path class="selected"  fill="#000000" opacity="1.000000" stroke="none" 
 	d="
M528.694843 285.434647 C529.994892 285.984696 531.295002 286.784744 532.595050 287.584824 C532.418110 287.784744 532.108112 288.174729 532.083332 288.157395 C530.938251 287.355454 529.817951 286.517960 528.694843 285.434647 z"/><path class="selected"  fill="#000000" opacity="1.000000" stroke="none" 
 	d="
M492.694843 224.934647 C491.394794 224.384598 490.094715 223.584534 488.794666 222.784470 C488.971576 222.584519 489.281574 222.194596 489.306354 222.211930 C490.451465 223.013886 491.571705 223.851319 492.694843 224.934647 z"/><path class="selected"  fill="#000000" opacity="1.000000" stroke="none" 
 	d="
M319.694843 168.184647 C318.866718 168.184647 317.537952 168.202164 316.211475 168.155319 C316.089832 168.151016 315.982715 167.735306 315.868854 167.510636 C316.977527 167.735306 318.086170 167.959976 319.694843 168.184647 z"/><path class="selected"  fill="#000000" opacity="1.000000" stroke="none" 
 	d="
M516.444843 243.434647 C517.015827 244.030350 517.336750 244.376053 517.657734 244.721787 C516.753437 244.459412 515.763141 244.342346 514.978351 243.878021 C514.535358 243.615921 514.430561 242.782288 514.173420 242.206101 C514.847248 242.532288 515.521015 242.858475 516.444843 243.434647 z"/><path class="selected"  fill="#000000" opacity="1.000000" stroke="none" 
 	d="
M263.694843 155.184647 C262.757129 154.955689 262.319446 154.726715 261.881733 154.497757 C262.659931 154.393402 263.450458 154.149903 264.213367 154.217682 C265.323688 154.316345 266.414112 154.639206 267.513019 154.866486 C266.406971 154.972550 265.300892 155.078598 263.694843 155.184647 z"/><path class="selected"  fill="#000000" opacity="1.000000" stroke="none" 
 	d="
M268.694843 134.934647 C266.694843 135.017990 264.694843 134.851319 262.694843 134.434647 C264.694843 134.351319 266.694843 134.517990 268.694843 134.934647 z"/><path class="selected"  fill="#000000" opacity="1.000000" stroke="none" 
 	d="
M94.944843 140.184647 C94.811664 139.901154 94.865055 139.428498 95.055523 139.364655 C96.370853 138.923630 97.710186 138.549393 99.057117 138.215439 C99.181179 138.184677 99.412235 138.585480 99.593608 138.785889 C98.127353 139.252136 96.661098 139.718399 94.944843 140.184647 z"/><path class="selected"  fill="#000000" opacity="1.000000" stroke="none" 
 	d="
M274.694843 135.934647 C272.694843 136.017975 270.694843 135.851303 268.694843 135.434647 C270.694843 135.351319 272.694843 135.517990 274.694843 135.934647 z"/><path class="selected"  fill="#000000" opacity="1.000000" stroke="none" 
 	d="
M117.444843 160.434647 C117.581249 160.798264 117.463321 161.014557 117.354694 161.009995 C115.827198 160.945709 114.300975 160.851334 112.774440 160.764267 C114.247905 160.571060 115.721378 160.377854 117.444843 160.434647 z"/><path class="selected"  fill="#000000" opacity="1.000000" stroke="none" 
 	d="
M137.694843 156.184647 C138.633884 156.412262 139.072940 156.639878 139.511997 156.867493 C138.409137 156.973206 137.305851 157.154144 136.203632 157.147873 C135.758411 157.145325 135.315555 156.733460 134.871616 156.507874 C135.646030 156.400131 136.420429 156.292389 137.694843 156.184647 z"/><path class="selected"  fill="#000000" opacity="1.000000" stroke="none" 
 	d="
M275.694843 155.934647 C275.533924 156.184647 275.370807 156.201904 275.212391 156.181961 C273.730487 155.995423 272.249378 155.802490 270.768055 155.611435 C272.410328 155.635834 274.052570 155.660248 275.694843 155.934647 z"/><path class="selected"  fill="#000000" opacity="1.000000" stroke="none" 
 	d="
M94.444843 140.184647 C94.433185 140.517975 94.235805 141.028000 93.897640 141.150986 C92.944660 141.497666 91.933818 141.685272 90.945781 141.935578 C91.012943 141.701126 91.018734 141.311859 91.157100 141.257004 C92.154613 140.861557 93.178989 140.533829 94.444843 140.184647 z"/></svg>